<svg xmlns="http://www.w3.org/2000/svg" xmlns:v="https://svgstorm.com"
viewBox = "0 0 1137 879"
width="1137"
height="879">
<g fill="None" fill-opacity="0.0" stroke="#000000" stroke-opacity="0.00" stroke-width="0.3"><path d="
M 0.00 879.00 
L 1137.00 879.00
L 1137.00 0.00
L 0.00 0.00
L 0.00 879.00
M 490.00 69.00 
C 490.42 69.18 491.00 69.00 491.00 69.00
C 527.75 84.15 568.77 93.37 600.00 118.00
C 601.68 119.04 602.91 118.87 604.00 121.00
C 604.47 121.13 605.00 121.00 605.00 121.00
C 607.56 122.00 609.70 123.58 612.00 125.00
C 651.91 149.71 693.86 172.67 733.70 197.30 C 773.53 221.94 816.37 245.34 855.75 270.25 C 895.13 295.17 939.06 316.75 977.23 342.77 C 1015.40 368.79 1075.37 382.48 1078.00 437.00 C 1080.63 491.52 1018.26 509.67 980.26 534.26 C 942.25 558.84 898.48 582.43 858.77 606.77 C 819.06 631.11 777.08 655.07 736.77 679.77 C 696.46 704.47 654.51 727.43 614.00 752.00
C 611.81 753.33 609.35 754.72 607.00 756.00
C 604.17 757.55 601.01 760.22 598.00 762.00
C 580.97 772.11 565.37 779.50 547.92 788.92 C 530.48 798.35 508.56 801.39 491.00 810.00
C 490.26 810.36 489.81 810.79 489.00 811.00
C 456.67 819.51 424.56 821.30 391.00 826.00
C 389.80 826.17 387.81 826.93 386.00 827.00
C 379.36 827.27 372.65 827.00 366.00 827.00
C 358.43 827.00 357.21 827.00 349.00 827.00 C 340.79 827.00 341.20 827.00 331.00 827.00 C 320.80 827.00 306.20 827.00 296.00 827.00 C 285.80 827.00 286.18 827.00 278.00 827.00 C 269.82 827.00 267.60 827.00 260.00 827.00 C 252.40 827.00 251.21 827.00 243.00 827.00 C 234.79 827.00 235.17 827.00 225.00 827.00 C 214.83 827.00 200.15 827.00 190.00 827.00 C 179.85 827.00 179.85 827.00 172.00 827.00 C 164.15 827.00 160.78 827.01 154.00 827.00 C 147.22 826.99 143.20 827.03 137.00 827.00 C 130.80 826.97 124.92 827.07 119.00 827.00 C 113.08 826.93 106.58 827.16 101.00 827.00 C 95.42 826.84 89.00 827.37 84.00 827.00 C 79.00 826.63 69.98 827.78 66.00 827.00 C 62.02 826.22 49.92 829.17 49.00 826.00
C 46.51 820.40 50.11 812.23 49.00 806.00 C 47.89 799.77 49.48 792.57 49.00 786.00 C 48.52 779.43 49.23 771.69 49.00 765.00 C 48.77 758.31 49.10 751.72 49.00 745.00 C 48.90 738.28 49.04 731.79 49.00 725.00 C 48.96 718.21 49.02 710.81 49.00 704.00 C 48.98 697.19 49.01 690.82 49.00 684.00 C 48.99 677.18 49.00 669.81 49.00 663.00 C 49.00 656.19 49.00 649.78 49.00 643.00 C 49.00 636.22 49.00 629.81 49.00 623.00 C 49.00 616.19 49.00 608.83 49.00 602.00 C 49.00 595.17 49.00 588.83 49.00 582.00 C 49.00 575.17 49.00 567.81 49.00 561.00 C 49.00 554.19 49.00 547.78 49.00 541.00 C 49.00 534.22 49.00 527.81 49.00 521.00 C 49.00 514.19 49.00 506.83 49.00 500.00 C 49.00 493.17 49.00 486.83 49.00 480.00 C 49.00 473.17 49.00 465.81 49.00 459.00 C 49.00 452.19 49.00 445.78 49.00 439.00 C 49.00 432.22 49.00 425.81 49.00 419.00 C 49.00 412.19 49.00 404.83 49.00 398.00 C 49.00 391.17 49.00 384.83 49.00 378.00 C 49.00 371.17 49.00 363.81 49.00 357.00 C 49.00 350.19 49.00 343.78 49.00 337.00 C 49.00 330.22 49.00 323.81 49.00 317.00 C 49.00 310.19 49.00 302.83 49.00 296.00 C 49.00 289.17 49.00 282.82 49.00 276.00 C 49.00 269.18 49.00 261.81 49.00 255.00 C 49.00 248.19 49.00 241.77 49.00 235.00 C 49.00 228.23 49.00 221.81 49.00 215.00 C 49.00 208.19 48.99 200.81 49.00 194.00 C 49.01 187.19 48.98 180.79 49.00 174.00 C 49.02 167.21 48.95 159.74 49.00 153.00 C 49.05 146.26 48.89 139.60 49.00 133.00 C 49.11 126.40 48.76 119.41 49.00 113.00 C 49.24 106.59 48.50 97.98 49.00 92.00 C 49.50 86.02 47.83 76.87 49.00 72.00 C 50.17 67.13 46.05 53.98 50.00 52.00
C 61.79 48.22 76.55 53.71 89.00 52.00 C 101.45 50.29 115.24 52.77 128.00 52.00 C 140.76 51.23 154.11 52.35 167.00 52.00 C 179.89 51.65 193.04 52.16 206.00 52.00 C 218.96 51.84 231.99 52.07 245.00 52.00 C 258.01 51.93 270.95 52.03 284.00 52.00 C 297.05 51.97 309.87 52.01 323.00 52.00 C 336.13 51.99 349.82 52.00 363.00 52.00
C 385.03 52.00 409.33 53.10 430.07 56.93 C 450.82 60.75 471.22 60.80 490.00 69.00 Z"/>
</g>
<g fill="None" fill-opacity="0.0" stroke="#1FBEC6" stroke-opacity="1.00" stroke-width="0.3"><path d="
M 49.00 826.00 
C 49.08 826.19 50.50 826.00 51.00 826.00
C 79.79 811.88 105.54 791.13 134.08 776.08 C 162.63 761.03 188.92 741.83 217.25 726.25 C 245.57 710.66 273.04 691.90 301.00 676.00
C 294.94 676.75 288.07 675.87 282.00 676.00 C 275.93 676.13 267.82 676.32 262.00 676.00 C 256.18 675.68 248.02 677.08 243.00 676.00 C 237.98 674.92 226.71 678.88 224.00 675.00
C 220.69 670.27 225.48 660.03 224.00 654.00 C 222.52 647.97 224.64 639.68 224.00 633.00 C 223.36 626.32 224.30 617.94 224.00 611.00 C 223.70 604.06 224.13 597.06 224.00 590.00 C 223.87 582.94 224.06 575.10 224.00 568.00 C 223.94 560.90 224.03 554.09 224.00 547.00 C 223.97 539.91 224.01 533.14 224.00 526.00 C 223.99 518.86 224.01 511.15 224.00 504.00 C 223.99 496.85 224.00 490.16 224.00 483.00 C 224.00 475.84 224.00 468.15 224.00 461.00 C 224.00 453.85 224.00 447.11 224.00 440.00 C 224.00 432.89 224.00 426.15 224.00 419.00 C 224.00 411.85 224.00 404.16 224.00 397.00 C 224.00 389.84 223.99 383.15 224.00 376.00 C 224.01 368.85 223.99 361.14 224.00 354.00 C 224.01 346.86 223.97 340.09 224.00 333.00 C 224.03 325.91 223.93 319.10 224.00 312.00 C 224.07 304.90 223.86 297.07 224.00 290.00 C 224.14 282.93 223.67 275.95 224.00 269.00 C 224.33 262.05 223.31 253.70 224.00 247.00 C 224.69 240.30 222.40 232.08 224.00 226.00 C 225.60 219.92 220.60 208.86 224.00 204.00
C 226.67 200.18 236.88 203.94 242.00 203.00 C 247.12 202.06 256.17 203.31 262.00 203.00 C 267.83 202.69 274.85 202.80 281.00 203.00 C 287.15 203.20 294.80 202.24 301.00 203.00
C 281.19 189.42 259.25 178.18 238.77 165.23 C 218.29 152.28 196.41 140.92 175.92 128.08 C 155.43 115.23 133.72 103.72 113.75 90.25 C 93.79 76.77 69.36 68.32 51.00 53.00
C 50.72 52.77 50.00 52.00 50.00 52.00
C 46.05 53.98 50.17 67.13 49.00 72.00 C 47.83 76.87 49.50 86.02 49.00 92.00 C 48.50 97.98 49.24 106.59 49.00 113.00 C 48.76 119.41 49.11 126.40 49.00 133.00 C 48.89 139.60 49.05 146.26 49.00 153.00 C 48.95 159.74 49.02 167.21 49.00 174.00 C 48.98 180.79 49.01 187.19 49.00 194.00 C 48.99 200.81 49.00 208.19 49.00 215.00 C 49.00 221.81 49.00 228.23 49.00 235.00 C 49.00 241.77 49.00 248.19 49.00 255.00 C 49.00 261.81 49.00 269.18 49.00 276.00 C 49.00 282.82 49.00 289.17 49.00 296.00 C 49.00 302.83 49.00 310.19 49.00 317.00 C 49.00 323.81 49.00 330.22 49.00 337.00 C 49.00 343.78 49.00 350.19 49.00 357.00 C 49.00 363.81 49.00 371.17 49.00 378.00 C 49.00 384.83 49.00 391.17 49.00 398.00 C 49.00 404.83 49.00 412.19 49.00 419.00 C 49.00 425.81 49.00 432.22 49.00 439.00 C 49.00 445.78 49.00 452.19 49.00 459.00 C 49.00 465.81 49.00 473.17 49.00 480.00 C 49.00 486.83 49.00 493.17 49.00 500.00 C 49.00 506.83 49.00 514.19 49.00 521.00 C 49.00 527.81 49.00 534.22 49.00 541.00 C 49.00 547.78 49.00 554.19 49.00 561.00 C 49.00 567.81 49.00 575.17 49.00 582.00 C 49.00 588.83 49.00 595.17 49.00 602.00 C 49.00 608.83 49.00 616.19 49.00 623.00 C 49.00 629.81 49.00 636.22 49.00 643.00 C 49.00 649.78 49.00 656.19 49.00 663.00 C 49.00 669.81 48.99 677.18 49.00 684.00 C 49.01 690.82 48.98 697.19 49.00 704.00 C 49.02 710.81 48.96 718.21 49.00 725.00 C 49.04 731.79 48.90 738.28 49.00 745.00 C 49.10 751.72 48.77 758.31 49.00 765.00 C 49.23 771.69 48.52 779.43 49.00 786.00 C 49.48 792.57 47.89 799.77 49.00 806.00 C 50.11 812.23 46.51 820.40 49.00 826.00 Z"/>
</g>
<g fill="None" fill-opacity="0.0" stroke="#0091D5" stroke-opacity="0.29" stroke-width="0.3"><path d="
M 51.00 53.00 
C 76.44 56.66 103.27 51.43 129.00 53.00 C 154.73 54.57 181.16 52.48 207.00 53.00 C 232.84 53.52 259.16 53.18 285.00 53.00 C 310.84 52.82 338.03 54.42 363.00 52.00
C 349.82 52.00 336.13 51.99 323.00 52.00 C 309.87 52.01 297.05 51.97 284.00 52.00 C 270.95 52.03 258.01 51.93 245.00 52.00 C 231.99 52.07 218.96 51.84 206.00 52.00 C 193.04 52.16 179.89 51.65 167.00 52.00 C 154.11 52.35 140.76 51.23 128.00 52.00 C 115.24 52.77 101.45 50.29 89.00 52.00 C 76.55 53.71 61.79 48.22 50.00 52.00
C 50.00 52.00 50.72 52.77 51.00 53.00 Z"/>
</g>
<g fill="None" fill-opacity="0.0" stroke="#008FD4" stroke-opacity="1.00" stroke-width="0.3"><path d="
M 51.00 53.00 
C 69.36 68.32 93.79 76.77 113.75 90.25 C 133.72 103.72 155.43 115.23 175.92 128.08 C 196.41 140.92 218.29 152.28 238.77 165.23 C 259.25 178.18 281.19 189.42 301.00 203.00
C 302.42 203.18 302.06 203.62 303.00 204.00
C 304.87 204.19 306.17 204.78 308.00 205.00
C 339.89 208.85 379.94 201.55 410.02 208.98 C 440.11 216.40 463.15 220.84 489.00 237.00
C 488.29 229.09 489.30 220.94 489.00 213.00 C 488.70 205.06 489.09 196.93 489.00 189.00 C 488.91 181.07 488.93 172.87 489.00 165.00 C 489.07 157.13 488.73 148.73 489.00 141.00 C 489.27 133.27 488.35 124.41 489.00 117.00 C 489.65 109.59 487.53 99.69 489.00 93.00 C 490.47 86.31 485.41 73.44 490.00 69.00
C 471.22 60.80 450.82 60.75 430.07 56.93 C 409.33 53.10 385.03 52.00 363.00 52.00
C 338.03 54.42 310.84 52.82 285.00 53.00 C 259.16 53.18 232.84 53.52 207.00 53.00 C 181.16 52.48 154.73 54.57 129.00 53.00 C 103.27 51.43 76.44 56.66 51.00 53.00 Z"/>
</g>
<g fill="None" fill-opacity="0.0" stroke="#50439F" stroke-opacity="0.93" stroke-width="0.3"><path d="
M 489.00 237.00 
C 489.00 236.96 490.00 237.00 490.00 237.00
C 489.99 223.17 489.67 208.77 490.00 195.00 C 490.33 181.23 489.12 166.56 490.00 153.00 C 490.88 139.44 487.97 124.05 490.00 111.00 C 492.03 97.95 485.13 80.53 491.00 69.00
C 491.00 69.00 490.42 69.18 490.00 69.00
C 485.41 73.44 490.47 86.31 489.00 93.00 C 487.53 99.69 489.65 109.59 489.00 117.00 C 488.35 124.41 489.27 133.27 489.00 141.00 C 488.73 148.73 489.07 157.13 489.00 165.00 C 488.93 172.87 488.91 181.07 489.00 189.00 C 489.09 196.93 488.70 205.06 489.00 213.00 C 489.30 220.94 488.29 229.09 489.00 237.00 Z"/>
</g>
<g fill="None" fill-opacity="0.0" stroke="#662D90" stroke-opacity="1.00" stroke-width="0.3"><path d="
M 490.00 237.00 
C 490.00 237.50 490.00 238.00 490.00 238.00
C 502.51 242.47 513.81 254.29 524.00 263.00
C 527.60 266.07 530.97 269.45 534.00 273.00
C 539.96 279.97 544.85 286.41 550.30 293.70 C 555.76 300.99 559.53 308.78 564.31 316.69 C 569.08 324.61 571.29 334.11 575.78 342.22 C 580.26 350.34 579.33 363.29 584.00 371.00
C 621.67 394.32 660.06 416.20 698.00 439.00
C 660.99 463.03 621.42 484.59 584.00 508.00
C 578.90 515.59 579.90 529.03 575.22 537.22 C 570.55 545.41 568.74 555.71 563.69 563.70 C 558.65 571.68 554.68 579.68 549.23 587.23 C 543.78 594.78 538.06 600.90 532.00 608.00
C 529.51 610.91 526.86 613.56 524.00 616.00
C 513.82 624.70 502.44 636.54 490.00 641.00
C 490.00 641.50 490.00 642.00 490.00 642.00
C 490.00 649.99 490.02 658.01 490.00 666.00 C 489.98 673.99 490.06 682.03 490.00 690.00 C 489.94 697.98 490.14 706.05 490.00 714.00 C 489.86 721.95 490.32 730.12 490.00 738.00 C 489.68 745.88 490.70 754.26 490.00 762.00 C 489.30 769.74 491.56 778.57 490.00 786.00 C 488.44 793.43 492.89 803.63 491.00 810.00
C 508.56 801.39 530.48 798.35 547.92 788.92 C 565.37 779.50 580.97 772.11 598.00 762.00
C 600.84 759.89 604.16 757.93 607.00 756.00
C 609.00 754.64 610.87 752.46 613.00 751.00
C 644.99 729.06 668.47 705.12 692.92 673.92 C 717.37 642.72 733.74 610.92 748.32 572.32 C 762.90 533.73 770.34 480.85 770.00 437.00 C 769.66 393.15 762.38 341.08 747.68 302.32 C 732.98 263.56 715.47 233.41 691.25 201.75 C 667.03 170.10 640.81 147.91 610.00 125.00
C 607.78 124.12 606.29 122.98 605.00 121.00
C 605.00 121.00 604.47 121.13 604.00 121.00
C 602.04 120.47 601.34 119.05 600.00 118.00
C 568.77 93.37 527.75 84.15 491.00 69.00
C 485.13 80.53 492.03 97.95 490.00 111.00 C 487.97 124.05 490.88 139.44 490.00 153.00 C 489.12 166.56 490.33 181.23 490.00 195.00 C 489.67 208.77 489.99 223.17 490.00 237.00 Z"/>
</g>
<g fill="None" fill-opacity="0.0" stroke="#CB13A3" stroke-opacity="0.20" stroke-width="0.3"><path d="
M 604.00 121.00 
C 602.91 118.87 601.68 119.04 600.00 118.00
C 601.34 119.05 602.04 120.47 604.00 121.00 Z"/>
</g>
<g fill="None" fill-opacity="0.0" stroke="#E0048C" stroke-opacity="0.38" stroke-width="0.3"><path d="
M 610.00 125.00 
C 611.18 125.47 611.69 124.94 612.00 125.00
C 609.70 123.58 607.56 122.00 605.00 121.00
C 606.29 122.98 607.78 124.12 610.00 125.00 Z"/>
</g>
<g fill="None" fill-opacity="0.0" stroke="#EC008C" stroke-opacity="0.99" stroke-width="0.3"><path d="
M 613.00 751.00 
C 613.09 750.98 613.67 752.01 614.00 752.00
C 654.51 727.43 696.46 704.47 736.77 679.77 C 777.08 655.07 819.06 631.11 858.77 606.77 C 898.48 582.43 942.25 558.84 980.26 534.26 C 1018.26 509.67 1080.63 491.52 1078.00 437.00 C 1075.37 382.48 1015.40 368.79 977.23 342.77 C 939.06 316.75 895.13 295.17 855.75 270.25 C 816.37 245.34 773.53 221.94 733.70 197.30 C 693.86 172.67 651.91 149.71 612.00 125.00
C 611.69 124.94 611.18 125.47 610.00 125.00
C 640.81 147.91 667.03 170.10 691.25 201.75 C 715.47 233.41 732.98 263.56 747.68 302.32 C 762.38 341.08 769.66 393.15 770.00 437.00 C 770.34 480.85 762.90 533.73 748.32 572.32 C 733.74 610.92 717.37 642.72 692.92 673.92 C 668.47 705.12 644.99 729.06 613.00 751.00 Z"/>
</g>
<g fill="None" fill-opacity="0.0" stroke="#48C0A3" stroke-opacity="1.00" stroke-width="0.3"><path d="
M 224.00 204.00 
C 250.13 205.97 276.93 201.37 303.00 204.00
C 302.06 203.62 302.42 203.18 301.00 203.00
C 294.80 202.24 287.15 203.20 281.00 203.00 C 274.85 202.80 267.83 202.69 262.00 203.00 C 256.17 203.31 247.12 202.06 242.00 203.00 C 236.88 203.94 226.67 200.18 224.00 204.00 Z"/>
</g>
<g fill="None" fill-opacity="0.0" stroke="#FFCB07" stroke-opacity="1.00" stroke-width="0.3"><path d="
M 224.00 675.00 
C 250.05 672.65 277.05 678.14 303.00 675.00
C 304.75 674.79 306.13 674.19 308.00 674.00
C 329.00 665.08 346.98 648.20 367.70 637.70 C 388.42 627.20 407.69 613.63 427.75 601.75 C 447.80 589.86 469.35 578.52 489.00 566.00
C 489.00 565.50 489.00 564.50 489.00 564.00
C 489.00 481.00 488.98 398.00 489.00 315.00
C 489.00 314.50 489.00 313.50 489.00 313.00
C 469.67 300.70 448.11 289.49 428.31 277.69 C 408.50 265.90 389.11 252.50 368.30 241.70 C 347.49 230.89 329.07 214.66 308.00 205.00
C 306.17 204.78 304.87 204.19 303.00 204.00
C 276.93 201.37 250.13 205.97 224.00 204.00
C 220.60 208.86 225.60 219.92 224.00 226.00 C 222.40 232.08 224.69 240.30 224.00 247.00 C 223.31 253.70 224.33 262.05 224.00 269.00 C 223.67 275.95 224.14 282.93 224.00 290.00 C 223.86 297.07 224.07 304.90 224.00 312.00 C 223.93 319.10 224.03 325.91 224.00 333.00 C 223.97 340.09 224.01 346.86 224.00 354.00 C 223.99 361.14 224.01 368.85 224.00 376.00 C 223.99 383.15 224.00 389.84 224.00 397.00 C 224.00 404.16 224.00 411.85 224.00 419.00 C 224.00 426.15 224.00 432.89 224.00 440.00 C 224.00 447.11 224.00 453.85 224.00 461.00 C 224.00 468.15 224.00 475.84 224.00 483.00 C 224.00 490.16 223.99 496.85 224.00 504.00 C 224.01 511.15 223.99 518.86 224.00 526.00 C 224.01 533.14 223.97 539.91 224.00 547.00 C 224.03 554.09 223.94 560.90 224.00 568.00 C 224.06 575.10 223.87 582.94 224.00 590.00 C 224.13 597.06 223.70 604.06 224.00 611.00 C 224.30 617.94 223.36 626.32 224.00 633.00 C 224.64 639.68 222.52 647.97 224.00 654.00 C 225.48 660.03 220.69 670.27 224.00 675.00 Z"/>
</g>
<g fill="None" fill-opacity="0.0" stroke="#000000" stroke-opacity="0.00" stroke-width="0.3"><path d="
M 489.00 313.00 
C 488.99 288.02 486.75 261.87 489.00 237.00
C 463.15 220.84 440.11 216.40 410.02 208.98 C 379.94 201.55 339.89 208.85 308.00 205.00
C 329.07 214.66 347.49 230.89 368.30 241.70 C 389.11 252.50 408.50 265.90 428.31 277.69 C 448.11 289.49 469.67 300.70 489.00 313.00 Z"/>
</g>
<g fill="None" fill-opacity="0.0" stroke="#F68F1E" stroke-opacity="0.73" stroke-width="0.3"><path d="
M 489.00 313.00 
C 489.00 313.50 489.00 314.50 489.00 315.00
C 489.34 315.23 490.00 315.00 490.00 315.00
C 487.32 302.91 490.96 289.48 490.00 277.00 C 489.04 264.52 489.99 250.61 490.00 238.00
C 490.00 238.00 490.00 237.50 490.00 237.00
C 490.00 237.00 489.00 236.96 489.00 237.00
C 486.75 261.87 488.99 288.02 489.00 313.00 Z"/>
</g>
<g fill="None" fill-opacity="0.0" stroke="#F68F1F" stroke-opacity="1.00" stroke-width="0.3"><path d="
M 490.00 315.00 
C 490.35 315.03 490.73 315.82 491.00 316.00
C 521.01 335.76 553.44 352.08 584.00 371.00
C 579.33 363.29 580.26 350.34 575.78 342.22 C 571.29 334.11 569.08 324.61 564.31 316.69 C 559.53 308.78 555.76 300.99 550.30 293.70 C 544.85 286.41 539.96 279.97 534.00 273.00
C 530.75 269.75 527.21 266.21 524.00 263.00
C 513.81 254.29 502.51 242.47 490.00 238.00
C 489.99 250.61 489.04 264.52 490.00 277.00 C 490.96 289.48 487.32 302.91 490.00 315.00 Z"/>
</g>
<g fill="None" fill-opacity="0.0" stroke="#AA5B5B" stroke-opacity="0.99" stroke-width="0.3"><path d="
M 534.00 273.00 
C 530.97 269.45 527.60 266.07 524.00 263.00
C 527.21 266.21 530.75 269.75 534.00 273.00 Z"/>
</g>
<g fill="None" fill-opacity="0.0" stroke="#53C099" stroke-opacity="0.94" stroke-width="0.3"><path d="
M 489.00 564.00 
C 489.34 563.77 490.00 564.00 490.00 564.00
C 490.35 563.97 490.73 563.18 491.00 563.00
C 485.50 544.61 491.51 521.80 490.00 502.00 C 488.49 482.20 489.98 460.05 490.00 440.00 C 490.02 419.95 488.43 397.90 490.00 378.00 C 491.57 358.10 485.47 334.47 491.00 316.00
C 490.73 315.82 490.35 315.03 490.00 315.00
C 490.00 315.00 489.34 315.23 489.00 315.00
C 488.98 398.00 489.00 481.00 489.00 564.00 Z"/>
</g>
<g fill="None" fill-opacity="0.0" stroke="#21BDC5" stroke-opacity="1.00" stroke-width="0.3"><path d="
M 491.00 563.00 
C 521.04 543.23 553.51 527.07 584.00 508.00
C 621.42 484.59 660.99 463.03 698.00 439.00
C 660.06 416.20 621.67 394.32 584.00 371.00
C 553.44 352.08 521.01 335.76 491.00 316.00
C 485.47 334.47 491.57 358.10 490.00 378.00 C 488.43 397.90 490.02 419.95 490.00 440.00 C 489.98 460.05 488.49 482.20 490.00 502.00 C 491.51 521.80 485.50 544.61 491.00 563.00 Z"/>
</g>
<g fill="None" fill-opacity="0.0" stroke="#F58F1F" stroke-opacity="1.00" stroke-width="0.3"><path d="
M 491.00 563.00 
C 490.73 563.18 490.35 563.97 490.00 564.00
C 492.28 589.20 490.00 615.69 490.00 641.00
C 502.44 636.54 513.82 624.70 524.00 616.00
C 526.59 613.41 529.46 610.54 532.00 608.00
C 538.06 600.90 543.78 594.78 549.23 587.23 C 554.68 579.68 558.65 571.68 563.69 563.70 C 568.74 555.71 570.55 545.41 575.22 537.22 C 579.90 529.03 578.90 515.59 584.00 508.00
C 553.51 527.07 521.04 543.23 491.00 563.00 Z"/>
</g>
<g fill="None" fill-opacity="0.0" stroke="#F68F1F" stroke-opacity="0.73" stroke-width="0.3"><path d="
M 489.00 566.00 
C 489.00 590.99 486.77 617.13 489.00 642.00
C 489.00 641.96 490.00 642.00 490.00 642.00
C 490.00 642.00 490.00 641.50 490.00 641.00
C 490.00 615.69 492.28 589.20 490.00 564.00
C 490.00 564.00 489.34 563.77 489.00 564.00
C 489.00 564.50 489.00 565.50 489.00 566.00 Z"/>
</g>
<g fill="None" fill-opacity="0.0" stroke="#000000" stroke-opacity="0.00" stroke-width="0.3"><path d="
M 308.00 674.00 
C 340.02 670.78 379.86 677.09 410.02 670.02 C 440.18 662.96 463.09 657.83 489.00 642.00
C 486.77 617.13 489.00 590.99 489.00 566.00
C 469.35 578.52 447.80 589.86 427.75 601.75 C 407.69 613.63 388.42 627.20 367.70 637.70 C 346.98 648.20 329.00 665.08 308.00 674.00 Z"/>
</g>
<g fill="None" fill-opacity="0.0" stroke="#A85A5C" stroke-opacity="0.99" stroke-width="0.3"><path d="
M 524.00 616.00 
C 526.86 613.56 529.51 610.91 532.00 608.00
C 529.46 610.54 526.59 613.41 524.00 616.00 Z"/>
</g>
<g fill="None" fill-opacity="0.0" stroke="#008FD4" stroke-opacity="1.00" stroke-width="0.3"><path d="
M 308.00 674.00 
C 306.13 674.19 304.75 674.79 303.00 675.00
C 302.19 675.39 302.26 675.84 301.00 676.00
C 273.04 691.90 245.57 710.66 217.25 726.25 C 188.92 741.83 162.63 761.03 134.08 776.08 C 105.54 791.13 79.79 811.88 51.00 826.00
C 103.35 826.00 156.76 824.69 209.00 826.00 C 261.24 827.31 314.81 822.04 366.00 827.00
C 372.65 827.00 379.36 827.27 386.00 827.00
C 385.96 827.01 386.58 824.82 388.04 825.04 C 389.49 825.25 390.36 825.98 391.00 826.00
C 424.56 821.30 456.67 819.51 489.00 811.00
C 486.26 808.08 490.15 799.47 489.00 795.00 C 487.85 790.53 489.52 783.13 489.00 778.00 C 488.48 772.88 489.23 766.42 489.00 761.00 C 488.77 755.58 489.10 749.56 489.00 744.00 C 488.90 738.44 489.04 732.62 489.00 727.00 C 488.96 721.38 489.00 715.64 489.00 710.00 C 489.00 704.36 488.96 698.65 489.00 693.00 C 489.04 687.35 488.90 681.65 489.00 676.00 C 489.10 670.35 488.77 664.64 489.00 659.00 C 489.23 653.36 488.49 647.62 489.00 642.00
C 463.09 657.83 440.18 662.96 410.02 670.02 C 379.86 677.09 340.02 670.78 308.00 674.00 Z"/>
</g>
<g fill="None" fill-opacity="0.0" stroke="#4F43A0" stroke-opacity="0.93" stroke-width="0.3"><path d="
M 489.00 811.00 
C 489.81 810.79 490.26 810.36 491.00 810.00
C 492.89 803.63 488.44 793.43 490.00 786.00 C 491.56 778.57 489.30 769.74 490.00 762.00 C 490.70 754.26 489.68 745.88 490.00 738.00 C 490.32 730.12 489.86 721.95 490.00 714.00 C 490.14 706.05 489.94 697.98 490.00 690.00 C 490.06 682.03 489.98 673.99 490.00 666.00 C 490.02 658.01 490.00 649.99 490.00 642.00
C 490.00 642.00 489.00 641.96 489.00 642.00
C 488.49 647.62 489.23 653.36 489.00 659.00 C 488.77 664.64 489.10 670.35 489.00 676.00 C 488.90 681.65 489.04 687.35 489.00 693.00 C 488.96 698.65 489.00 704.36 489.00 710.00 C 489.00 715.64 488.96 721.38 489.00 727.00 C 489.04 732.62 488.90 738.44 489.00 744.00 C 489.10 749.56 488.77 755.58 489.00 761.00 C 489.23 766.42 488.48 772.88 489.00 778.00 C 489.52 783.13 487.85 790.53 489.00 795.00 C 490.15 799.47 486.26 808.08 489.00 811.00 Z"/>
</g>
<g fill="None" fill-opacity="0.0" stroke="#3EBFAC" stroke-opacity="1.00" stroke-width="0.3"><path d="
M 301.00 676.00 
C 302.26 675.84 302.19 675.39 303.00 675.00
C 277.05 678.14 250.05 672.65 224.00 675.00
C 226.71 678.88 237.98 674.92 243.00 676.00 C 248.02 677.08 256.18 675.68 262.00 676.00 C 267.82 676.32 275.93 676.13 282.00 676.00 C 288.07 675.87 294.94 676.75 301.00 676.00 Z"/>
</g>
<g fill="None" fill-opacity="0.0" stroke="#E3058A" stroke-opacity="0.41" stroke-width="0.3"><path d="
M 607.00 756.00 
C 609.35 754.72 611.81 753.33 614.00 752.00
C 613.67 752.01 613.09 750.98 613.00 751.00
C 610.87 752.46 609.00 754.64 607.00 756.00 Z"/>
</g>
<g fill="None" fill-opacity="0.0" stroke="#CA108F" stroke-opacity="0.20" stroke-width="0.3"><path d="
M 598.00 762.00 
C 601.01 760.22 604.17 757.55 607.00 756.00
C 604.16 757.93 600.84 759.89 598.00 762.00 Z"/>
</g>
<g fill="None" fill-opacity="0.0" stroke="#008DCA" stroke-opacity="0.32" stroke-width="0.3"><path d="
M 386.00 827.00 
C 387.81 826.93 389.80 826.17 391.00 826.00
C 390.36 825.98 389.49 825.25 388.04 825.04 C 386.58 824.82 385.96 827.01 386.00 827.00 Z"/>
</g>
<g fill="None" fill-opacity="0.0" stroke="#0091D5" stroke-opacity="0.17" stroke-width="0.3"><path d="
M 366.00 827.00 
C 314.81 822.04 261.24 827.31 209.00 826.00 C 156.76 824.69 103.35 826.00 51.00 826.00
C 50.50 826.00 49.08 826.19 49.00 826.00
C 49.92 829.17 62.02 826.22 66.00 827.00 C 69.98 827.78 79.00 826.63 84.00 827.00 C 89.00 827.37 95.42 826.84 101.00 827.00 C 106.58 827.16 113.08 826.93 119.00 827.00 C 124.92 827.07 130.80 826.97 137.00 827.00 C 143.20 827.03 147.22 826.99 154.00 827.00 C 160.78 827.01 164.15 827.00 172.00 827.00 C 179.85 827.00 179.85 827.00 190.00 827.00 C 200.15 827.00 214.83 827.00 225.00 827.00 C 235.17 827.00 234.79 827.00 243.00 827.00 C 251.21 827.00 252.40 827.00 260.00 827.00 C 267.60 827.00 269.82 827.00 278.00 827.00 C 286.18 827.00 285.80 827.00 296.00 827.00 C 306.20 827.00 320.80 827.00 331.00 827.00 C 341.20 827.00 340.79 827.00 349.00 827.00 C 357.21 827.00 358.43 827.00 366.00 827.00 Z"/>
</g>
<g fill="#000000" fill-opacity="0.00" stroke="None">
<path d="
M 0.00 879.00 
L 1137.00 879.00
L 1137.00 0.00
L 0.00 0.00
L 0.00 879.00
M 490.00 69.00 
C 490.42 69.18 491.00 69.00 491.00 69.00
C 527.75 84.15 568.77 93.37 600.00 118.00
C 601.68 119.04 602.91 118.87 604.00 121.00
C 604.47 121.13 605.00 121.00 605.00 121.00
C 607.56 122.00 609.70 123.58 612.00 125.00
C 651.91 149.71 693.86 172.67 733.70 197.30 C 773.53 221.94 816.37 245.34 855.75 270.25 C 895.13 295.17 939.06 316.75 977.23 342.77 C 1015.40 368.79 1075.37 382.48 1078.00 437.00 C 1080.63 491.52 1018.26 509.67 980.26 534.26 C 942.25 558.84 898.48 582.43 858.77 606.77 C 819.06 631.11 777.08 655.07 736.77 679.77 C 696.46 704.47 654.51 727.43 614.00 752.00
C 611.81 753.33 609.35 754.72 607.00 756.00
C 604.17 757.55 601.01 760.22 598.00 762.00
C 580.97 772.11 565.37 779.50 547.92 788.92 C 530.48 798.35 508.56 801.39 491.00 810.00
C 490.26 810.36 489.81 810.79 489.00 811.00
C 456.67 819.51 424.56 821.30 391.00 826.00
C 389.80 826.17 387.81 826.93 386.00 827.00
C 379.36 827.27 372.65 827.00 366.00 827.00
C 358.43 827.00 357.21 827.00 349.00 827.00 C 340.79 827.00 341.20 827.00 331.00 827.00 C 320.80 827.00 306.20 827.00 296.00 827.00 C 285.80 827.00 286.18 827.00 278.00 827.00 C 269.82 827.00 267.60 827.00 260.00 827.00 C 252.40 827.00 251.21 827.00 243.00 827.00 C 234.79 827.00 235.17 827.00 225.00 827.00 C 214.83 827.00 200.15 827.00 190.00 827.00 C 179.85 827.00 179.85 827.00 172.00 827.00 C 164.15 827.00 160.78 827.01 154.00 827.00 C 147.22 826.99 143.20 827.03 137.00 827.00 C 130.80 826.97 124.92 827.07 119.00 827.00 C 113.08 826.93 106.58 827.16 101.00 827.00 C 95.42 826.84 89.00 827.37 84.00 827.00 C 79.00 826.63 69.98 827.78 66.00 827.00 C 62.02 826.22 49.92 829.17 49.00 826.00
C 46.51 820.40 50.11 812.23 49.00 806.00 C 47.89 799.77 49.48 792.57 49.00 786.00 C 48.52 779.43 49.23 771.69 49.00 765.00 C 48.77 758.31 49.10 751.72 49.00 745.00 C 48.90 738.28 49.04 731.79 49.00 725.00 C 48.96 718.21 49.02 710.81 49.00 704.00 C 48.98 697.19 49.01 690.82 49.00 684.00 C 48.99 677.18 49.00 669.81 49.00 663.00 C 49.00 656.19 49.00 649.78 49.00 643.00 C 49.00 636.22 49.00 629.81 49.00 623.00 C 49.00 616.19 49.00 608.83 49.00 602.00 C 49.00 595.17 49.00 588.83 49.00 582.00 C 49.00 575.17 49.00 567.81 49.00 561.00 C 49.00 554.19 49.00 547.78 49.00 541.00 C 49.00 534.22 49.00 527.81 49.00 521.00 C 49.00 514.19 49.00 506.83 49.00 500.00 C 49.00 493.17 49.00 486.83 49.00 480.00 C 49.00 473.17 49.00 465.81 49.00 459.00 C 49.00 452.19 49.00 445.78 49.00 439.00 C 49.00 432.22 49.00 425.81 49.00 419.00 C 49.00 412.19 49.00 404.83 49.00 398.00 C 49.00 391.17 49.00 384.83 49.00 378.00 C 49.00 371.17 49.00 363.81 49.00 357.00 C 49.00 350.19 49.00 343.78 49.00 337.00 C 49.00 330.22 49.00 323.81 49.00 317.00 C 49.00 310.19 49.00 302.83 49.00 296.00 C 49.00 289.17 49.00 282.82 49.00 276.00 C 49.00 269.18 49.00 261.81 49.00 255.00 C 49.00 248.19 49.00 241.77 49.00 235.00 C 49.00 228.23 49.00 221.81 49.00 215.00 C 49.00 208.19 48.99 200.81 49.00 194.00 C 49.01 187.19 48.98 180.79 49.00 174.00 C 49.02 167.21 48.95 159.74 49.00 153.00 C 49.05 146.26 48.89 139.60 49.00 133.00 C 49.11 126.40 48.76 119.41 49.00 113.00 C 49.24 106.59 48.50 97.98 49.00 92.00 C 49.50 86.02 47.83 76.87 49.00 72.00 C 50.17 67.13 46.05 53.98 50.00 52.00
C 61.79 48.22 76.55 53.71 89.00 52.00 C 101.45 50.29 115.24 52.77 128.00 52.00 C 140.76 51.23 154.11 52.35 167.00 52.00 C 179.89 51.65 193.04 52.16 206.00 52.00 C 218.96 51.84 231.99 52.07 245.00 52.00 C 258.01 51.93 270.95 52.03 284.00 52.00 C 297.05 51.97 309.87 52.01 323.00 52.00 C 336.13 51.99 349.82 52.00 363.00 52.00
C 385.03 52.00 409.33 53.10 430.07 56.93 C 450.82 60.75 471.22 60.80 490.00 69.00 Z"/>
</g>
<g fill="#1FBEC6" fill-opacity="1.00" stroke="None">
<path d="
M 49.00 826.00 
C 49.08 826.19 50.50 826.00 51.00 826.00
C 79.79 811.88 105.54 791.13 134.08 776.08 C 162.63 761.03 188.92 741.83 217.25 726.25 C 245.57 710.66 273.04 691.90 301.00 676.00
C 294.94 676.75 288.07 675.87 282.00 676.00 C 275.93 676.13 267.82 676.32 262.00 676.00 C 256.18 675.68 248.02 677.08 243.00 676.00 C 237.98 674.92 226.71 678.88 224.00 675.00
C 220.69 670.27 225.48 660.03 224.00 654.00 C 222.52 647.97 224.64 639.68 224.00 633.00 C 223.36 626.32 224.30 617.94 224.00 611.00 C 223.70 604.06 224.13 597.06 224.00 590.00 C 223.87 582.94 224.06 575.10 224.00 568.00 C 223.94 560.90 224.03 554.09 224.00 547.00 C 223.97 539.91 224.01 533.14 224.00 526.00 C 223.99 518.86 224.01 511.15 224.00 504.00 C 223.99 496.85 224.00 490.16 224.00 483.00 C 224.00 475.84 224.00 468.15 224.00 461.00 C 224.00 453.85 224.00 447.11 224.00 440.00 C 224.00 432.89 224.00 426.15 224.00 419.00 C 224.00 411.85 224.00 404.16 224.00 397.00 C 224.00 389.84 223.99 383.15 224.00 376.00 C 224.01 368.85 223.99 361.14 224.00 354.00 C 224.01 346.86 223.97 340.09 224.00 333.00 C 224.03 325.91 223.93 319.10 224.00 312.00 C 224.07 304.90 223.86 297.07 224.00 290.00 C 224.14 282.93 223.67 275.95 224.00 269.00 C 224.33 262.05 223.31 253.70 224.00 247.00 C 224.69 240.30 222.40 232.08 224.00 226.00 C 225.60 219.92 220.60 208.86 224.00 204.00
C 226.67 200.18 236.88 203.94 242.00 203.00 C 247.12 202.06 256.17 203.31 262.00 203.00 C 267.83 202.69 274.85 202.80 281.00 203.00 C 287.15 203.20 294.80 202.24 301.00 203.00
C 281.19 189.42 259.25 178.18 238.77 165.23 C 218.29 152.28 196.41 140.92 175.92 128.08 C 155.43 115.23 133.72 103.72 113.75 90.25 C 93.79 76.77 69.36 68.32 51.00 53.00
C 50.72 52.77 50.00 52.00 50.00 52.00
C 46.05 53.98 50.17 67.13 49.00 72.00 C 47.83 76.87 49.50 86.02 49.00 92.00 C 48.50 97.98 49.24 106.59 49.00 113.00 C 48.76 119.41 49.11 126.40 49.00 133.00 C 48.89 139.60 49.05 146.26 49.00 153.00 C 48.95 159.74 49.02 167.21 49.00 174.00 C 48.98 180.79 49.01 187.19 49.00 194.00 C 48.99 200.81 49.00 208.19 49.00 215.00 C 49.00 221.81 49.00 228.23 49.00 235.00 C 49.00 241.77 49.00 248.19 49.00 255.00 C 49.00 261.81 49.00 269.18 49.00 276.00 C 49.00 282.82 49.00 289.17 49.00 296.00 C 49.00 302.83 49.00 310.19 49.00 317.00 C 49.00 323.81 49.00 330.22 49.00 337.00 C 49.00 343.78 49.00 350.19 49.00 357.00 C 49.00 363.81 49.00 371.17 49.00 378.00 C 49.00 384.83 49.00 391.17 49.00 398.00 C 49.00 404.83 49.00 412.19 49.00 419.00 C 49.00 425.81 49.00 432.22 49.00 439.00 C 49.00 445.78 49.00 452.19 49.00 459.00 C 49.00 465.81 49.00 473.17 49.00 480.00 C 49.00 486.83 49.00 493.17 49.00 500.00 C 49.00 506.83 49.00 514.19 49.00 521.00 C 49.00 527.81 49.00 534.22 49.00 541.00 C 49.00 547.78 49.00 554.19 49.00 561.00 C 49.00 567.81 49.00 575.17 49.00 582.00 C 49.00 588.83 49.00 595.17 49.00 602.00 C 49.00 608.83 49.00 616.19 49.00 623.00 C 49.00 629.81 49.00 636.22 49.00 643.00 C 49.00 649.78 49.00 656.19 49.00 663.00 C 49.00 669.81 48.99 677.18 49.00 684.00 C 49.01 690.82 48.98 697.19 49.00 704.00 C 49.02 710.81 48.96 718.21 49.00 725.00 C 49.04 731.79 48.90 738.28 49.00 745.00 C 49.10 751.72 48.77 758.31 49.00 765.00 C 49.23 771.69 48.52 779.43 49.00 786.00 C 49.48 792.57 47.89 799.77 49.00 806.00 C 50.11 812.23 46.51 820.40 49.00 826.00 Z"/>
</g>
<g fill="#0091D5" fill-opacity="0.29" stroke="None">
<path d="
M 51.00 53.00 
C 76.44 56.66 103.27 51.43 129.00 53.00 C 154.73 54.57 181.16 52.48 207.00 53.00 C 232.84 53.52 259.16 53.18 285.00 53.00 C 310.84 52.82 338.03 54.42 363.00 52.00
C 349.82 52.00 336.13 51.99 323.00 52.00 C 309.87 52.01 297.05 51.97 284.00 52.00 C 270.95 52.03 258.01 51.93 245.00 52.00 C 231.99 52.07 218.96 51.84 206.00 52.00 C 193.04 52.16 179.89 51.65 167.00 52.00 C 154.11 52.35 140.76 51.23 128.00 52.00 C 115.24 52.77 101.45 50.29 89.00 52.00 C 76.55 53.71 61.79 48.22 50.00 52.00
C 50.00 52.00 50.72 52.77 51.00 53.00 Z"/>
</g>
<g fill="#008FD4" fill-opacity="1.00" stroke="None">
<path d="
M 51.00 53.00 
C 69.36 68.32 93.79 76.77 113.75 90.25 C 133.72 103.72 155.43 115.23 175.92 128.08 C 196.41 140.92 218.29 152.28 238.77 165.23 C 259.25 178.18 281.19 189.42 301.00 203.00
C 302.42 203.18 302.06 203.62 303.00 204.00
C 304.87 204.19 306.17 204.78 308.00 205.00
C 339.89 208.85 379.94 201.55 410.02 208.98 C 440.11 216.40 463.15 220.84 489.00 237.00
C 488.29 229.09 489.30 220.94 489.00 213.00 C 488.70 205.06 489.09 196.93 489.00 189.00 C 488.91 181.07 488.93 172.87 489.00 165.00 C 489.07 157.13 488.73 148.73 489.00 141.00 C 489.27 133.27 488.35 124.41 489.00 117.00 C 489.65 109.59 487.53 99.69 489.00 93.00 C 490.47 86.31 485.41 73.44 490.00 69.00
C 471.22 60.80 450.82 60.75 430.07 56.93 C 409.33 53.10 385.03 52.00 363.00 52.00
C 338.03 54.42 310.84 52.82 285.00 53.00 C 259.16 53.18 232.84 53.52 207.00 53.00 C 181.16 52.48 154.73 54.57 129.00 53.00 C 103.27 51.43 76.44 56.66 51.00 53.00 Z"/>
</g>
<g fill="#50439F" fill-opacity="0.93" stroke="None">
<path d="
M 489.00 237.00 
C 489.00 236.96 490.00 237.00 490.00 237.00
C 489.99 223.17 489.67 208.77 490.00 195.00 C 490.33 181.23 489.12 166.56 490.00 153.00 C 490.88 139.44 487.97 124.05 490.00 111.00 C 492.03 97.95 485.13 80.53 491.00 69.00
C 491.00 69.00 490.42 69.18 490.00 69.00
C 485.41 73.44 490.47 86.31 489.00 93.00 C 487.53 99.69 489.65 109.59 489.00 117.00 C 488.35 124.41 489.27 133.27 489.00 141.00 C 488.73 148.73 489.07 157.13 489.00 165.00 C 488.93 172.87 488.91 181.07 489.00 189.00 C 489.09 196.93 488.70 205.06 489.00 213.00 C 489.30 220.94 488.29 229.09 489.00 237.00 Z"/>
</g>
<g fill="#662D90" fill-opacity="1.00" stroke="None">
<path d="
M 490.00 237.00 
C 490.00 237.50 490.00 238.00 490.00 238.00
C 502.51 242.47 513.81 254.29 524.00 263.00
C 527.60 266.07 530.97 269.45 534.00 273.00
C 539.96 279.97 544.85 286.41 550.30 293.70 C 555.76 300.99 559.53 308.78 564.31 316.69 C 569.08 324.61 571.29 334.11 575.78 342.22 C 580.26 350.34 579.33 363.29 584.00 371.00
C 621.67 394.32 660.06 416.20 698.00 439.00
C 660.99 463.03 621.42 484.59 584.00 508.00
C 578.90 515.59 579.90 529.03 575.22 537.22 C 570.55 545.41 568.74 555.71 563.69 563.70 C 558.65 571.68 554.68 579.68 549.23 587.23 C 543.78 594.78 538.06 600.90 532.00 608.00
C 529.51 610.91 526.86 613.56 524.00 616.00
C 513.82 624.70 502.44 636.54 490.00 641.00
C 490.00 641.50 490.00 642.00 490.00 642.00
C 490.00 649.99 490.02 658.01 490.00 666.00 C 489.98 673.99 490.06 682.03 490.00 690.00 C 489.94 697.98 490.14 706.05 490.00 714.00 C 489.86 721.95 490.32 730.12 490.00 738.00 C 489.68 745.88 490.70 754.26 490.00 762.00 C 489.30 769.74 491.56 778.57 490.00 786.00 C 488.44 793.43 492.89 803.63 491.00 810.00
C 508.56 801.39 530.48 798.35 547.92 788.92 C 565.37 779.50 580.97 772.11 598.00 762.00
C 600.84 759.89 604.16 757.93 607.00 756.00
C 609.00 754.64 610.87 752.46 613.00 751.00
C 644.99 729.06 668.47 705.12 692.92 673.92 C 717.37 642.72 733.74 610.92 748.32 572.32 C 762.90 533.73 770.34 480.85 770.00 437.00 C 769.66 393.15 762.38 341.08 747.68 302.32 C 732.98 263.56 715.47 233.41 691.25 201.75 C 667.03 170.10 640.81 147.91 610.00 125.00
C 607.78 124.12 606.29 122.98 605.00 121.00
C 605.00 121.00 604.47 121.13 604.00 121.00
C 602.04 120.47 601.34 119.05 600.00 118.00
C 568.77 93.37 527.75 84.15 491.00 69.00
C 485.13 80.53 492.03 97.95 490.00 111.00 C 487.97 124.05 490.88 139.44 490.00 153.00 C 489.12 166.56 490.33 181.23 490.00 195.00 C 489.67 208.77 489.99 223.17 490.00 237.00 Z"/>
</g>
<g fill="#CB13A3" fill-opacity="0.20" stroke="None">
<path d="
M 604.00 121.00 
C 602.91 118.87 601.68 119.04 600.00 118.00
C 601.34 119.05 602.04 120.47 604.00 121.00 Z"/>
</g>
<g fill="#E0048C" fill-opacity="0.38" stroke="None">
<path d="
M 610.00 125.00 
C 611.18 125.47 611.69 124.94 612.00 125.00
C 609.70 123.58 607.56 122.00 605.00 121.00
C 606.29 122.98 607.78 124.12 610.00 125.00 Z"/>
</g>
<g fill="#EC008C" fill-opacity="0.99" stroke="None">
<path d="
M 613.00 751.00 
C 613.09 750.98 613.67 752.01 614.00 752.00
C 654.51 727.43 696.46 704.47 736.77 679.77 C 777.08 655.07 819.06 631.11 858.77 606.77 C 898.48 582.43 942.25 558.84 980.26 534.26 C 1018.26 509.67 1080.63 491.52 1078.00 437.00 C 1075.37 382.48 1015.40 368.79 977.23 342.77 C 939.06 316.75 895.13 295.17 855.75 270.25 C 816.37 245.34 773.53 221.94 733.70 197.30 C 693.86 172.67 651.91 149.71 612.00 125.00
C 611.69 124.94 611.18 125.47 610.00 125.00
C 640.81 147.91 667.03 170.10 691.25 201.75 C 715.47 233.41 732.98 263.56 747.68 302.32 C 762.38 341.08 769.66 393.15 770.00 437.00 C 770.34 480.85 762.90 533.73 748.32 572.32 C 733.74 610.92 717.37 642.72 692.92 673.92 C 668.47 705.12 644.99 729.06 613.00 751.00 Z"/>
</g>
<g fill="#48C0A3" fill-opacity="1.00" stroke="None">
<path d="
M 224.00 204.00 
C 250.13 205.97 276.93 201.37 303.00 204.00
C 302.06 203.62 302.42 203.18 301.00 203.00
C 294.80 202.24 287.15 203.20 281.00 203.00 C 274.85 202.80 267.83 202.69 262.00 203.00 C 256.17 203.31 247.12 202.06 242.00 203.00 C 236.88 203.94 226.67 200.18 224.00 204.00 Z"/>
</g>
<g fill="#FFCB07" fill-opacity="1.00" stroke="None">
<path d="
M 224.00 675.00 
C 250.05 672.65 277.05 678.14 303.00 675.00
C 304.75 674.79 306.13 674.19 308.00 674.00
C 329.00 665.08 346.98 648.20 367.70 637.70 C 388.42 627.20 407.69 613.63 427.75 601.75 C 447.80 589.86 469.35 578.52 489.00 566.00
C 489.00 565.50 489.00 564.50 489.00 564.00
C 489.00 481.00 488.98 398.00 489.00 315.00
C 489.00 314.50 489.00 313.50 489.00 313.00
C 469.67 300.70 448.11 289.49 428.31 277.69 C 408.50 265.90 389.11 252.50 368.30 241.70 C 347.49 230.89 329.07 214.66 308.00 205.00
C 306.17 204.78 304.87 204.19 303.00 204.00
C 276.93 201.37 250.13 205.97 224.00 204.00
C 220.60 208.86 225.60 219.92 224.00 226.00 C 222.40 232.08 224.69 240.30 224.00 247.00 C 223.31 253.70 224.33 262.05 224.00 269.00 C 223.67 275.95 224.14 282.93 224.00 290.00 C 223.86 297.07 224.07 304.90 224.00 312.00 C 223.93 319.10 224.03 325.91 224.00 333.00 C 223.97 340.09 224.01 346.86 224.00 354.00 C 223.99 361.14 224.01 368.85 224.00 376.00 C 223.99 383.15 224.00 389.84 224.00 397.00 C 224.00 404.16 224.00 411.85 224.00 419.00 C 224.00 426.15 224.00 432.89 224.00 440.00 C 224.00 447.11 224.00 453.85 224.00 461.00 C 224.00 468.15 224.00 475.84 224.00 483.00 C 224.00 490.16 223.99 496.85 224.00 504.00 C 224.01 511.15 223.99 518.86 224.00 526.00 C 224.01 533.14 223.97 539.91 224.00 547.00 C 224.03 554.09 223.94 560.90 224.00 568.00 C 224.06 575.10 223.87 582.94 224.00 590.00 C 224.13 597.06 223.70 604.06 224.00 611.00 C 224.30 617.94 223.36 626.32 224.00 633.00 C 224.64 639.68 222.52 647.97 224.00 654.00 C 225.48 660.03 220.69 670.27 224.00 675.00 Z"/>
</g>
<g fill="#000000" fill-opacity="0.00" stroke="None">
<path d="
M 489.00 313.00 
C 488.99 288.02 486.75 261.87 489.00 237.00
C 463.15 220.84 440.11 216.40 410.02 208.98 C 379.94 201.55 339.89 208.85 308.00 205.00
C 329.07 214.66 347.49 230.89 368.30 241.70 C 389.11 252.50 408.50 265.90 428.31 277.69 C 448.11 289.49 469.67 300.70 489.00 313.00 Z"/>
</g>
<g fill="#F68F1E" fill-opacity="0.73" stroke="None">
<path d="
M 489.00 313.00 
C 489.00 313.50 489.00 314.50 489.00 315.00
C 489.34 315.23 490.00 315.00 490.00 315.00
C 487.32 302.91 490.96 289.48 490.00 277.00 C 489.04 264.52 489.99 250.61 490.00 238.00
C 490.00 238.00 490.00 237.50 490.00 237.00
C 490.00 237.00 489.00 236.96 489.00 237.00
C 486.75 261.87 488.99 288.02 489.00 313.00 Z"/>
</g>
<g fill="#F68F1F" fill-opacity="1.00" stroke="None">
<path d="
M 490.00 315.00 
C 490.35 315.03 490.73 315.82 491.00 316.00
C 521.01 335.76 553.44 352.08 584.00 371.00
C 579.33 363.29 580.26 350.34 575.78 342.22 C 571.29 334.11 569.08 324.61 564.31 316.69 C 559.53 308.78 555.76 300.99 550.30 293.70 C 544.85 286.41 539.96 279.97 534.00 273.00
C 530.75 269.75 527.21 266.21 524.00 263.00
C 513.81 254.29 502.51 242.47 490.00 238.00
C 489.99 250.61 489.04 264.52 490.00 277.00 C 490.96 289.48 487.32 302.91 490.00 315.00 Z"/>
</g>
<g fill="#AA5B5B" fill-opacity="0.99" stroke="None">
<path d="
M 534.00 273.00 
C 530.97 269.45 527.60 266.07 524.00 263.00
C 527.21 266.21 530.75 269.75 534.00 273.00 Z"/>
</g>
<g fill="#53C099" fill-opacity="0.94" stroke="None">
<path d="
M 489.00 564.00 
C 489.34 563.77 490.00 564.00 490.00 564.00
C 490.35 563.97 490.73 563.18 491.00 563.00
C 485.50 544.61 491.51 521.80 490.00 502.00 C 488.49 482.20 489.98 460.05 490.00 440.00 C 490.02 419.95 488.43 397.90 490.00 378.00 C 491.57 358.10 485.47 334.47 491.00 316.00
C 490.73 315.82 490.35 315.03 490.00 315.00
C 490.00 315.00 489.34 315.23 489.00 315.00
C 488.98 398.00 489.00 481.00 489.00 564.00 Z"/>
</g>
<g fill="#21BDC5" fill-opacity="1.00" stroke="None">
<path d="
M 491.00 563.00 
C 521.04 543.23 553.51 527.07 584.00 508.00
C 621.42 484.59 660.99 463.03 698.00 439.00
C 660.06 416.20 621.67 394.32 584.00 371.00
C 553.44 352.08 521.01 335.76 491.00 316.00
C 485.47 334.47 491.57 358.10 490.00 378.00 C 488.43 397.90 490.02 419.95 490.00 440.00 C 489.98 460.05 488.49 482.20 490.00 502.00 C 491.51 521.80 485.50 544.61 491.00 563.00 Z"/>
</g>
<g fill="#F58F1F" fill-opacity="1.00" stroke="None">
<path d="
M 491.00 563.00 
C 490.73 563.18 490.35 563.97 490.00 564.00
C 492.28 589.20 490.00 615.69 490.00 641.00
C 502.44 636.54 513.82 624.70 524.00 616.00
C 526.59 613.41 529.46 610.54 532.00 608.00
C 538.06 600.90 543.78 594.78 549.23 587.23 C 554.68 579.68 558.65 571.68 563.69 563.70 C 568.74 555.71 570.55 545.41 575.22 537.22 C 579.90 529.03 578.90 515.59 584.00 508.00
C 553.51 527.07 521.04 543.23 491.00 563.00 Z"/>
</g>
<g fill="#F68F1F" fill-opacity="0.73" stroke="None">
<path d="
M 489.00 566.00 
C 489.00 590.99 486.77 617.13 489.00 642.00
C 489.00 641.96 490.00 642.00 490.00 642.00
C 490.00 642.00 490.00 641.50 490.00 641.00
C 490.00 615.69 492.28 589.20 490.00 564.00
C 490.00 564.00 489.34 563.77 489.00 564.00
C 489.00 564.50 489.00 565.50 489.00 566.00 Z"/>
</g>
<g fill="#000000" fill-opacity="0.00" stroke="None">
<path d="
M 308.00 674.00 
C 340.02 670.78 379.86 677.09 410.02 670.02 C 440.18 662.96 463.09 657.83 489.00 642.00
C 486.77 617.13 489.00 590.99 489.00 566.00
C 469.35 578.52 447.80 589.86 427.75 601.75 C 407.69 613.63 388.42 627.20 367.70 637.70 C 346.98 648.20 329.00 665.08 308.00 674.00 Z"/>
</g>
<g fill="#A85A5C" fill-opacity="0.99" stroke="None">
<path d="
M 524.00 616.00 
C 526.86 613.56 529.51 610.91 532.00 608.00
C 529.46 610.54 526.59 613.41 524.00 616.00 Z"/>
</g>
<g fill="#008FD4" fill-opacity="1.00" stroke="None">
<path d="
M 308.00 674.00 
C 306.13 674.19 304.75 674.79 303.00 675.00
C 302.19 675.39 302.26 675.84 301.00 676.00
C 273.04 691.90 245.57 710.66 217.25 726.25 C 188.92 741.83 162.63 761.03 134.08 776.08 C 105.54 791.13 79.79 811.88 51.00 826.00
C 103.35 826.00 156.76 824.69 209.00 826.00 C 261.24 827.31 314.81 822.04 366.00 827.00
C 372.65 827.00 379.36 827.27 386.00 827.00
C 385.96 827.01 386.58 824.82 388.04 825.04 C 389.49 825.25 390.36 825.98 391.00 826.00
C 424.56 821.30 456.67 819.51 489.00 811.00
C 486.26 808.08 490.15 799.47 489.00 795.00 C 487.85 790.53 489.52 783.13 489.00 778.00 C 488.48 772.88 489.23 766.42 489.00 761.00 C 488.77 755.58 489.10 749.56 489.00 744.00 C 488.90 738.44 489.04 732.62 489.00 727.00 C 488.96 721.38 489.00 715.64 489.00 710.00 C 489.00 704.36 488.96 698.65 489.00 693.00 C 489.04 687.35 488.90 681.65 489.00 676.00 C 489.10 670.35 488.77 664.64 489.00 659.00 C 489.23 653.36 488.49 647.62 489.00 642.00
C 463.09 657.83 440.18 662.96 410.02 670.02 C 379.86 677.09 340.02 670.78 308.00 674.00 Z"/>
</g>
<g fill="#4F43A0" fill-opacity="0.93" stroke="None">
<path d="
M 489.00 811.00 
C 489.81 810.79 490.26 810.36 491.00 810.00
C 492.89 803.63 488.44 793.43 490.00 786.00 C 491.56 778.57 489.30 769.74 490.00 762.00 C 490.70 754.26 489.68 745.88 490.00 738.00 C 490.32 730.12 489.86 721.95 490.00 714.00 C 490.14 706.05 489.94 697.98 490.00 690.00 C 490.06 682.03 489.98 673.99 490.00 666.00 C 490.02 658.01 490.00 649.99 490.00 642.00
C 490.00 642.00 489.00 641.96 489.00 642.00
C 488.49 647.62 489.23 653.36 489.00 659.00 C 488.77 664.64 489.10 670.35 489.00 676.00 C 488.90 681.65 489.04 687.35 489.00 693.00 C 488.96 698.65 489.00 704.36 489.00 710.00 C 489.00 715.64 488.96 721.38 489.00 727.00 C 489.04 732.62 488.90 738.44 489.00 744.00 C 489.10 749.56 488.77 755.58 489.00 761.00 C 489.23 766.42 488.48 772.88 489.00 778.00 C 489.52 783.13 487.85 790.53 489.00 795.00 C 490.15 799.47 486.26 808.08 489.00 811.00 Z"/>
</g>
<g fill="#3EBFAC" fill-opacity="1.00" stroke="None">
<path d="
M 301.00 676.00 
C 302.26 675.84 302.19 675.39 303.00 675.00
C 277.05 678.14 250.05 672.65 224.00 675.00
C 226.71 678.88 237.98 674.92 243.00 676.00 C 248.02 677.08 256.18 675.68 262.00 676.00 C 267.82 676.32 275.93 676.13 282.00 676.00 C 288.07 675.87 294.94 676.75 301.00 676.00 Z"/>
</g>
<g fill="#E3058A" fill-opacity="0.41" stroke="None">
<path d="
M 607.00 756.00 
C 609.35 754.72 611.81 753.33 614.00 752.00
C 613.67 752.01 613.09 750.98 613.00 751.00
C 610.87 752.46 609.00 754.64 607.00 756.00 Z"/>
</g>
<g fill="#CA108F" fill-opacity="0.20" stroke="None">
<path d="
M 598.00 762.00 
C 601.01 760.22 604.17 757.55 607.00 756.00
C 604.16 757.93 600.84 759.89 598.00 762.00 Z"/>
</g>
<g fill="#008DCA" fill-opacity="0.32" stroke="None">
<path d="
M 386.00 827.00 
C 387.81 826.93 389.80 826.17 391.00 826.00
C 390.36 825.98 389.49 825.25 388.04 825.04 C 386.58 824.82 385.96 827.01 386.00 827.00 Z"/>
</g>
<g fill="#0091D5" fill-opacity="0.17" stroke="None">
<path d="
M 366.00 827.00 
C 314.81 822.04 261.24 827.31 209.00 826.00 C 156.76 824.69 103.35 826.00 51.00 826.00
C 50.50 826.00 49.08 826.19 49.00 826.00
C 49.92 829.17 62.02 826.22 66.00 827.00 C 69.98 827.78 79.00 826.63 84.00 827.00 C 89.00 827.37 95.42 826.84 101.00 827.00 C 106.58 827.16 113.08 826.93 119.00 827.00 C 124.92 827.07 130.80 826.97 137.00 827.00 C 143.20 827.03 147.22 826.99 154.00 827.00 C 160.78 827.01 164.15 827.00 172.00 827.00 C 179.85 827.00 179.85 827.00 190.00 827.00 C 200.15 827.00 214.83 827.00 225.00 827.00 C 235.17 827.00 234.79 827.00 243.00 827.00 C 251.21 827.00 252.40 827.00 260.00 827.00 C 267.60 827.00 269.82 827.00 278.00 827.00 C 286.18 827.00 285.80 827.00 296.00 827.00 C 306.20 827.00 320.80 827.00 331.00 827.00 C 341.20 827.00 340.79 827.00 349.00 827.00 C 357.21 827.00 358.43 827.00 366.00 827.00 Z"/>
</g>
</svg>