<?xml version="1.0" encoding="UTF-8"?>
<svg version="1.1" xmlns="http://www.w3.org/2000/svg" width="4989" height="2530">
<path d="M0 0 C731.75912472 0 731.75912472 0 922.16821289 106.41625977 C930.62020095 111.58111064 939.13200455 116.63366543 947.6875 121.625 C957.61283273 127.41781116 967.49835014 133.27136021 977.34326172 139.20019531 C985.1296649 143.88653613 992.94127596 148.52885521 1000.76068115 153.15979004 C1012.18806327 159.92776987 1023.57298148 166.7584968 1034.91030884 173.6762085 C1043.7184739 179.04706751 1052.58796372 184.3035208 1061.5 189.5 C1070.99354693 195.03554964 1080.43121115 200.65121201 1089.8125 206.375 C1099.75410592 212.43927433 1109.73253381 218.43681363 1119.75 224.375 C1120.41548859 224.76957397 1121.08097717 225.16414795 1121.76663208 225.57067871 C1126.5098957 228.38246733 1131.25475584 231.19155545 1136 234 C1141.41776937 237.2064746 1146.83475917 240.41425659 1152.25 243.625 C1152.91508575 244.01925171 1153.58017151 244.41350342 1154.26541138 244.81970215 C1164.18915284 250.70515175 1174.06307152 256.66805784 1183.91223145 262.67730713 C1192.719749 268.04781321 1201.58859982 273.3038917 1210.5 278.5 C1219.99354693 284.03554964 1229.43121115 289.65121201 1238.8125 295.375 C1248.75410592 301.43927433 1258.73253381 307.43681363 1268.75 313.375 C1269.41548859 313.76957397 1270.08097717 314.16414795 1270.76663208 314.57067871 C1275.5098957 317.38246733 1280.25475584 320.19155545 1285 323 C1290.41776937 326.2064746 1295.83475917 329.41425659 1301.25 332.625 C1301.91508575 333.01925171 1302.58017151 333.41350342 1303.26541138 333.81970215 C1313.18915284 339.70515175 1323.06307152 345.66805784 1332.91223145 351.67730713 C1341.719749 357.04781321 1350.58859982 362.3038917 1359.5 367.5 C1368.99354693 373.03554964 1378.43121115 378.65121201 1387.8125 384.375 C1397.75410592 390.43927433 1407.73253381 396.43681363 1417.75 402.375 C1418.41548859 402.76957397 1419.08097717 403.16414795 1419.76663208 403.57067871 C1424.5098957 406.38246733 1429.25475584 409.19155545 1434 412 C1439.41776937 415.2064746 1444.83475917 418.41425659 1450.25 421.625 C1450.91508575 422.01925171 1451.58017151 422.41350342 1452.26541138 422.81970215 C1462.18915284 428.70515175 1472.06307152 434.66805784 1481.91223145 440.67730713 C1490.719749 446.04781321 1499.58859982 451.3038917 1508.5 456.5 C1517.99354693 462.03554964 1527.43121115 467.65121201 1536.8125 473.375 C1546.75410592 479.43927433 1556.73253381 485.43681363 1566.75 491.375 C1567.41548859 491.76957397 1568.08097717 492.16414795 1568.76663208 492.57067871 C1573.5098957 495.38246733 1578.25475584 498.19155545 1583 501 C1588.41776937 504.2064746 1593.83475917 507.41425659 1599.25 510.625 C1599.91508575 511.01925171 1600.58017151 511.41350342 1601.26541138 511.81970215 C1611.18616039 517.70337702 1621.05822692 523.66275833 1630.90316772 529.67227173 C1639.27995749 534.78297864 1647.71457002 539.78450757 1656.19360352 544.72360229 C1705.49283824 573.44741017 1705.49283824 573.44741017 1719 595 C1719.58394531 595.90105469 1720.16789062 596.80210937 1720.76953125 597.73046875 C1735.57641787 621.63439683 1739.79420142 651.68522695 1733.54345703 678.99462891 C1728.69530149 698.90420138 1718.95479633 716.28042771 1704.5625 730.875 C1703.96622803 731.48158447 1703.36995605 732.08816895 1702.75561523 732.71313477 C1693.6471077 741.64513509 1682.54920032 747.77657833 1671.625 754.1875 C1670.18071374 755.03924598 1668.73670612 755.8914646 1667.29296875 756.74414062 C1665.14510733 758.01262203 1662.99710714 759.28085825 1660.84820557 760.5475769 C1655.54911499 763.67142884 1650.26839405 766.8246317 1645 770 C1635.64984871 775.62723776 1626.2628929 781.19204213 1616.87695312 786.75927734 C1608.90654496 791.48732936 1600.94058966 796.2219629 1593 801 C1584.45844166 806.13959076 1575.88663648 811.22753576 1567.3125 816.3125 C1557.69350139 822.01720625 1548.08418966 827.73691162 1538.5 833.5 C1528.33180613 839.61421351 1518.13372249 845.67689234 1507.92822266 851.72851562 C1498.10811288 857.55231211 1488.30718575 863.40675743 1478.52270508 869.2902832 C1469.23261244 874.87151434 1459.9129576 880.40238119 1450.59130859 885.93066406 C1442.71603169 890.60146694 1434.84548805 895.27925296 1427 900 C1418.45843817 905.139585 1409.88663652 910.22753574 1401.3125 915.3125 C1391.69350141 921.01720624 1382.08418738 926.73690783 1372.5 932.5 C1362.21960293 938.68173179 1351.90907839 944.81162332 1341.59130859 950.93066406 C1333.71603169 955.60146694 1325.84548805 960.27925296 1318 965 C1309.45843817 970.139585 1300.88663652 975.22753574 1292.3125 980.3125 C1282.69350139 986.01720625 1273.08418966 991.73691162 1263.5 997.5 C1253.33180613 1003.61421351 1243.13372249 1009.67689234 1232.92822266 1015.72851562 C1223.10811288 1021.55231211 1213.30718575 1027.40675743 1203.52270508 1033.2902832 C1194.23261244 1038.87151434 1184.9129576 1044.40238119 1175.59130859 1049.93066406 C1167.71603169 1054.60146694 1159.84548805 1059.27925296 1152 1064 C1143.45843817 1069.139585 1134.88663652 1074.22753574 1126.3125 1079.3125 C1116.69350139 1085.01720625 1107.08418966 1090.73691162 1097.5 1096.5 C1087.33180613 1102.61421351 1077.13372249 1108.67689234 1066.92822266 1114.72851562 C1057.10811288 1120.55231211 1047.30718575 1126.40675743 1037.52270508 1132.2902832 C1028.23261244 1137.87151434 1018.9129576 1143.40238119 1009.59130859 1148.93066406 C1001.71603169 1153.60146694 993.84548805 1158.27925296 986 1163 C976.76491436 1168.55688861 967.49434542 1174.05342788 958.22393799 1179.55108643 C949.09230622 1184.96718643 939.97421279 1190.40455442 930.875 1195.875 C895.439619 1217.16119108 895.439619 1217.16119108 879 1226 C877.56140625 1226.774646 877.56140625 1226.774646 876.09375 1227.56494141 C805.03844229 1265.61283821 727.50033508 1289.21630483 0 1309 C0 877.03 0 445.06 0 0 Z M431 256 C433.8894619 259.04084801 437.16549058 261.03242125 440.765625 263.1328125 C441.43607849 263.52894745 442.10653198 263.9250824 442.79730225 264.33322144 C444.94571587 265.60142155 447.0977155 266.8633826 449.25 268.125 C450.65129452 268.95009155 452.05233859 269.77560861 453.453125 270.6015625 C455.55460653 271.8406655 457.65623896 273.07950008 459.75883484 274.31671143 C465.00782394 277.40701682 470.23504477 280.53217499 475.45472717 283.67166138 C479.7872779 286.27622655 484.13017333 288.8626894 488.48046875 291.4375 C489.10288956 291.80597046 489.72531036 292.17444092 490.36659241 292.55407715 C491.64594368 293.31140082 492.92530684 294.06870442 494.2046814 294.82598877 C505.23979712 301.35979361 516.24030516 307.94494556 527.1875 314.625 C537.16875457 320.71543711 547.22048449 326.67272162 557.32156372 332.56204224 C566.31168731 337.80621816 575.23969641 343.14270631 584.125 348.5625 C596.49222741 356.10465773 608.93584949 363.51218642 621.40869141 370.87841797 C627.92185191 374.72544067 634.43101593 378.57919707 640.9375 382.4375 C641.61144806 382.83706909 642.28539612 383.23663818 642.97976685 383.64831543 C652.99742879 389.59054666 662.96660038 395.6080723 672.90884399 401.67547607 C682.35144186 407.43465796 691.87122765 413.05138816 701.43115234 418.61331177 C711.75244808 424.62149464 721.93963576 430.82759637 732.05517578 437.17602539 C733.07208496 437.81016357 734.08899414 438.44430176 735.13671875 439.09765625 C736.03092529 439.65976807 736.92513184 440.22187988 737.84643555 440.80102539 C739.88043448 442.16214442 739.88043448 442.16214442 742 442 C742.37446256 425.22341567 742.65623457 408.44819447 742.82899475 391.66843605 C742.91136003 383.8763286 743.0235423 376.08682315 743.20703125 368.29638672 C743.36696845 361.50262957 743.46983209 354.71075652 743.50541592 347.91516912 C743.52620992 344.31866188 743.57469994 340.72754173 743.69168091 337.13277054 C744.8172651 322.83524879 744.8172651 322.83524879 740.45996094 309.8409977 C736.78096559 306.43237625 732.69550087 304.43169737 728.00916862 302.74666691 C724.9637412 301.61489536 722.22285176 300.05506625 719.375 298.49609375 C717.25628059 297.463574 715.13113351 296.44414737 713 295.4375 C711.84773926 294.88940674 710.69547852 294.34131348 709.50830078 293.77661133 C698.2381083 288.50292732 686.76142516 284.04347287 675 280 C674.01386719 279.65630371 673.02773437 279.31260742 672.01171875 278.95849609 C640.19844149 267.96723574 607.03930735 261.42662392 573.5625 258.25 C572.3451416 258.13430664 571.1277832 258.01861328 569.87353516 257.89941406 C549.94587163 256.16059924 529.99568624 255.85348983 510.00390625 255.90234375 C507.70507336 255.90421555 505.40624006 255.90563584 503.10740662 255.90663147 C497.14168133 255.91039677 491.17598153 255.92017368 485.21026611 255.93133545 C479.08874862 255.94168052 472.96722689 255.94615675 466.84570312 255.95117188 C454.8971244 255.96180318 442.94856434 255.9788048 431 256 Z M734.4296875 869.83984375 C733.41976242 870.44041344 733.41976242 870.44041344 732.38943481 871.05311584 C730.21673297 872.34586797 728.04586806 873.64167135 725.875 874.9375 C724.46495938 875.77688698 723.05480436 876.61608181 721.64453125 877.45507812 C714.88605195 881.47809794 708.13652624 885.51582996 701.39453125 889.56640625 C696.445609 892.5394548 691.48752712 895.49643325 686.51953125 898.4375 C685.89710037 898.80598557 685.27466949 899.17447113 684.63337708 899.55412292 C683.35403186 900.3114244 682.07467893 901.06871284 680.7953186 901.82598877 C669.76020288 908.35979361 658.75969484 914.94494556 647.8125 921.625 C637.82956901 927.71646005 627.77596748 933.67440329 617.67340088 939.56506348 C608.79007689 944.74742329 599.9668469 950.01847371 591.1875 955.375 C581.24589408 961.43927433 571.26746619 967.43681363 561.25 973.375 C560.58451141 973.76957397 559.91902283 974.16414795 559.23336792 974.57067871 C553.80988696 977.78569758 548.38424153 980.99705676 542.95849609 984.20825195 C538.22131951 987.01212998 533.48505682 989.8175436 528.75 992.625 C528.08491425 993.01925171 527.41982849 993.41350342 526.73458862 993.81970215 C516.8118803 999.70453903 506.93935442 1005.667384 497.09078979 1011.67529297 C488.21796339 1017.0845727 479.28627759 1022.38504501 470.3125 1027.625 C460.74791217 1033.21195331 451.19830408 1038.82184673 441.6875 1044.5 C440.60702393 1045.14146973 439.52654785 1045.78293945 438.41333008 1046.44384766 C436.94609497 1047.32242432 436.94609497 1047.32242432 435.44921875 1048.21875 C434.15504028 1048.9912207 434.15504028 1048.9912207 432.8347168 1049.77929688 C432.22926025 1050.18212891 431.62380371 1050.58496094 431 1051 C431 1051.33 431 1051.66 431 1052 C445.62365392 1052.047207 460.24729745 1052.08222281 474.87101269 1052.10362434 C481.66460439 1052.11383581 488.45814813 1052.12769594 495.25170898 1052.15087891 C501.83296007 1052.17293862 508.41416189 1052.18463681 514.99544716 1052.18975449 C517.48067308 1052.19339184 519.96589693 1052.20049 522.4511013 1052.21146011 C545.42007447 1052.30862577 568.42169901 1051.43300986 591.1875 1048.1875 C592.42048828 1048.01573242 593.65347656 1047.84396484 594.92382812 1047.66699219 C640.28663491 1041.16165381 683.80006912 1028.26388024 724.5625 1007.1875 C725.40079346 1006.7558252 726.23908691 1006.32415039 727.1027832 1005.87939453 C727.89515381 1005.45899902 728.68752441 1005.03860352 729.50390625 1004.60546875 C730.18267822 1004.24606201 730.8614502 1003.88665527 731.56079102 1003.51635742 C732.76819946 1002.7657605 732.76819946 1002.7657605 734 1002 C734.64557075 1001.66435878 735.29114149 1001.32871756 735.95627499 1000.98290539 C739.39669942 998.90963182 741.62566796 997.34870051 742.72840214 993.37560177 C742.98683808 990.02125553 742.9892261 986.74881362 742.90820312 983.38525391 C742.90937134 982.11641357 742.91053955 980.84757324 742.91174316 979.5402832 C742.91403262 976.07289225 742.86710577 972.60772882 742.8111515 969.14085436 C742.76103633 965.5134829 742.75643362 961.88605657 742.74694824 958.25839233 C742.72211316 951.3944867 742.65650701 944.53160413 742.57615232 937.6681484 C742.48663752 929.85209975 742.44272356 922.03600143 742.40258884 914.21956754 C742.31903636 898.14578007 742.17838391 882.07302072 742 866 C739.49942404 866 736.58734168 868.54950825 734.4296875 869.83984375 Z " fill="#662D90" transform="translate(3032,383)"/>
<path d="M0 0 C96.36 0 192.72 0 292 0 C300.03837025 24.11511076 300.03837025 24.11511076 303.72265625 36.26953125 C304.14489213 37.65499699 304.56738119 39.04038559 304.99009705 40.42570496 C305.88519038 43.36088204 306.77862915 46.29655505 307.6706543 49.23266602 C309.10254197 53.94566757 310.5383186 58.65747935 311.97460938 63.36914062 C313.73405882 69.14172096 315.49266374 74.91455713 317.25012779 80.68774223 C320.34688001 90.86009192 323.45045824 101.0303418 326.55859375 111.19921875 C326.7837221 111.93578012 327.00885044 112.6723415 327.24080086 113.43122292 C328.37379997 117.13796703 329.50692448 120.84467279 330.6401062 124.55136108 C332.6979724 131.28295181 334.7547148 138.01488592 336.81155586 144.74678993 C337.9576592 148.49787362 339.10383312 152.24893573 340.25 156 C340.70833367 157.4999999 341.16666701 158.9999999 341.625 160.5 C341.851875 161.2425 342.07875 161.985 342.3125 162.75 C366.37500038 241.50000123 366.37500038 241.50000123 367.06249905 243.74999714 C367.52083536 245.25000673 367.97917188 246.75001627 368.43750858 248.25002575 C369.58329783 251.99987845 370.72908372 255.74973217 371.87486267 259.49958801 C373.93788545 266.2513481 376.00093186 273.00310097 378.06410503 279.7548151 C379.21072219 283.5071112 380.35731948 287.25941337 381.50390625 291.01171875 C381.73090273 291.75458319 381.95789921 292.49744762 382.19177437 293.2628231 C385.38949385 303.72776035 388.58610275 314.1930363 391.78200912 324.65852737 C393.83358428 331.37659618 395.88544883 338.09457658 397.9375 344.8125 C398.16351898 345.55243195 398.38953796 346.29236389 398.62240601 347.05471802 C405.89873578 370.87478959 413.1942705 394.68893042 420.5 418.5 C430.32392099 450.51844063 440.11905789 482.54560543 449.90066528 514.57699585 C453.09817625 525.04771933 456.29673574 535.51812199 459.49609375 545.98828125 C459.72308519 546.73113058 459.95007664 547.47397991 460.18394661 548.23933983 C461.33061418 551.99189058 462.47729956 555.74443589 463.62399292 559.49697876 C465.68695055 566.24801793 467.74975047 572.9991053 469.81256294 579.75018883 C470.9583689 583.50012784 472.10418496 587.25006376 473.25 591 C473.70833338 592.49999999 474.16666672 593.99999999 474.625 595.5 C474.851875 596.2425 475.07875 596.985 475.3125 597.75 C476 600 476.6875 602.25 477.375 604.5 C477.60187531 605.24250094 477.82875063 605.98500189 478.06250095 606.75000286 C478.5208313 608.24999327 478.97916146 609.74998373 479.43749142 611.24997425 C480.58336883 615.00012155 481.72924962 618.75026783 482.87513733 622.50041199 C484.93711454 629.2486519 486.99906829 635.99689899 489.06089497 642.7451849 C490.20594445 646.49288881 491.35101384 650.24058664 492.49609375 653.98828125 C492.72284727 654.73041681 492.94960079 655.47255238 493.18322563 656.2371769 C496.40204641 666.77182836 499.62198953 677.30613626 502.84261322 687.84023666 C504.91616024 694.62258092 506.98941984 701.40501303 509.0625 708.1875 C509.28699074 708.9219635 509.51148148 709.656427 509.74277496 710.41314697 C520.19160975 744.5997057 530.6002188 778.79849137 541 813 C543.15319386 809.77020921 543.98737869 807.11728341 545.08105469 803.39819336 C545.280584 802.72493326 545.48011332 802.05167316 545.68568897 801.35801125 C546.35258118 799.10335005 547.01217482 796.84661882 547.671875 794.58984375 C548.14601477 792.98187284 548.62063007 791.37404209 549.09568787 789.76634216 C550.1163026 786.30892702 551.13376255 782.85060501 552.14877319 779.39154053 C553.76512091 773.88339775 555.38836626 768.37730358 557.01293945 762.87158203 C558.6900014 757.18705305 560.36675152 751.502434 562.04121399 745.81713867 C565.5934223 733.75740026 569.16019996 721.70210892 572.74609375 709.65234375 C572.97351635 708.88812292 573.20093895 708.12390209 573.43525314 707.33652306 C574.56884664 703.52772614 575.70283414 699.71904667 576.83703613 695.91043091 C579.10556918 688.29243644 581.37149667 680.67366706 583.63671875 673.0546875 C583.8596825 672.3047735 584.08264626 671.5548595 584.31236649 670.78222084 C589.61100675 652.95865873 594.88202772 635.12694505 600.15166855 617.29479218 C607.07813334 593.85633395 614.0301587 570.42559481 621 547 C628.14498358 522.98505382 635.27243441 498.96502669 642.375 474.9375 C642.80616079 473.47897288 643.23732331 472.02044627 643.66848755 470.56192017 C644.31880014 468.36205147 644.96911232 466.16218266 645.61942387 463.96231365 C646.27622531 461.74049923 646.93303417 459.51868701 647.58984375 457.296875 C647.91681464 456.19079423 647.91681464 456.19079423 648.25039101 455.06236839 C653.80614076 436.26878519 659.37053027 417.47776238 664.9375 398.6875 C665.1887048 397.83957508 665.43990959 396.99165016 665.69872665 396.11803055 C673.40739548 370.0984672 681.13396871 344.08426665 688.87220383 318.07348251 C695.98823841 294.15399019 703.07931062 270.2272331 710.15166855 246.29479218 C716.84879935 223.63237705 723.56875192 200.97686109 730.30771637 178.32685089 C737.55515631 153.96730903 744.79149762 129.60453514 752.00109863 105.23376465 C752.59253369 103.23473499 753.18416972 101.23576494 753.77587891 99.23681641 C763.56191664 66.17102938 773.26991047 33.0823044 783 0 C859.56 0 936.12 0 1015 0 C1035.96881152 69.89603839 1035.96881152 69.89603839 1042.5625 92 C1042.96442718 93.34682802 1043.3663749 94.69364992 1043.76834106 96.04046631 C1048.78831507 112.86057781 1053.79995346 129.68316028 1058.8046875 146.5078125 C1059.05238073 147.3404789 1059.30007397 148.17314529 1059.55527306 149.03104401 C1060.82991499 153.31601695 1062.10451905 157.60100116 1063.37911987 161.88598633 C1063.6357478 162.74872162 1063.89237572 163.61145691 1064.15678024 164.50033569 C1064.67784013 166.25206193 1065.19888961 168.00379127 1065.71992874 169.75552368 C1074.92711757 200.70958572 1084.16938768 231.65306894 1093.42518234 262.59262848 C1102.39418655 292.57385932 1111.34107958 322.56153753 1120.26049805 352.55755615 C1128.97977529 381.87986732 1137.73229056 411.19213586 1146.5 440.5 C1155.77753712 471.51206755 1165.03439276 502.53014926 1174.26049805 533.55755615 C1183.28543262 563.90777123 1192.34675034 594.24700214 1201.42209244 624.58218002 C1210.62881827 655.35670759 1219.81008263 686.13867617 1228.96537399 716.92854309 C1238.59153738 749.30138196 1248.27187921 781.65765084 1258 814 C1260.71344667 807.0583521 1262.92526699 799.99758066 1265.11328125 792.875 C1265.5188234 791.56083438 1265.92456007 790.24672879 1266.33047485 788.93267822 C1267.43023402 785.37001344 1268.52680163 781.80637375 1269.62266159 778.24250793 C1270.5542801 775.21402781 1271.48766154 772.18609208 1272.42096424 769.15813065 C1281.61640645 739.32207885 1290.73919272 709.46378276 1299.84962463 679.60168457 C1303.06519522 669.06180971 1306.28346039 658.52276124 1309.50390625 647.984375 C1309.73066481 647.24234077 1309.95742336 646.50030655 1310.19105339 645.73578644 C1311.33599916 641.98916966 1312.48099244 638.24256741 1313.62600708 634.49597168 C1315.68842009 627.74748078 1317.75041156 620.99886108 1319.81243706 614.25025177 C1320.95827432 610.50016264 1322.10413851 606.75008173 1323.25 603 C1323.70833346 601.50000004 1324.1666668 600.00000004 1324.625 598.5 C1340.20833333 547.5 1355.79166667 496.5 1371.375 445.5 C1371.60187469 444.75750094 1371.82874937 444.01500189 1372.06249905 443.25000286 C1372.52083536 441.74999327 1372.97917188 440.24998373 1373.43750858 438.74997425 C1374.58329783 435.00012155 1375.72908372 431.25026783 1376.87486267 427.50041199 C1378.93788545 420.7486519 1381.00093186 413.99689903 1383.06410503 407.2451849 C1384.21072219 403.4928888 1385.35731948 399.74058663 1386.50390625 395.98828125 C1386.73090273 395.24541681 1386.95789921 394.50255238 1387.19177437 393.7371769 C1390.38949385 383.27223965 1393.58610275 372.8069637 1396.78200912 362.34147263 C1406.57629343 330.26920088 1416.38681407 298.20198996 1426.22328949 266.14263153 C1433.51707673 242.37020528 1440.79823411 218.5939645 1448.0625 194.8125 C1448.28851898 194.07256805 1448.51453796 193.33263611 1448.74740601 192.57028198 C1450.79872824 185.85459472 1452.84981386 179.1388352 1454.90066528 172.42300415 C1458.09817625 161.95228067 1461.29676621 151.48188732 1464.49609375 141.01171875 C1464.9554549 139.50836193 1465.41481565 138.005005 1465.87417603 136.50164795 C1467.92767581 129.78122724 1469.98133951 123.06085671 1472.03549767 116.34063721 C1473.16828367 112.63467024 1474.30096465 108.92867117 1475.43359375 105.22265625 C1475.65839794 104.48709755 1475.88320213 103.75153885 1476.11481857 102.99369049 C1479.26771873 92.67673116 1482.41583104 82.35832024 1485.56069946 72.03890991 C1487.32892406 66.23682351 1489.09841119 60.43512237 1490.8681736 54.63350487 C1492.30490066 49.92322153 1493.73996545 45.21243619 1495.1737299 40.50125027 C1496.06302919 37.58060092 1496.95397057 34.66045431 1497.84533501 31.74043465 C1498.2530651 30.4035822 1498.66014131 29.06653008 1499.06645393 27.72924614 C1501.89278079 18.42868282 1504.92447642 9.22657074 1508 0 C1603.7 0 1699.4 0 1798 0 C1795.75031633 10.12357649 1795.75031633 10.12357649 1794.55810547 13.72631836 C1794.15427139 14.95795715 1794.15427139 14.95795715 1793.74227905 16.21447754 C1793.45349884 17.08084839 1793.16471863 17.94721924 1792.8671875 18.83984375 C1792.55899078 19.77687134 1792.25079407 20.71389893 1791.93325806 21.67932129 C1791.26710936 23.70370457 1790.59911028 25.72747973 1789.92944336 27.7507019 C1788.09695207 33.28896027 1786.27961156 38.83219204 1784.4609375 44.375 C1784.08535706 45.51867538 1783.70977661 46.66235077 1783.32281494 47.84068298 C1779.65564057 59.02074193 1776.07189501 70.22671568 1772.5 81.4375 C1765.83618072 102.33382702 1759.08527119 123.20130347 1752.3125 144.0625 C1751.79536565 145.65546548 1751.27823512 147.2484322 1750.7611084 148.84140015 C1750.50459944 149.6315492 1750.24809048 150.42169825 1749.98380852 151.23579121 C1748.68839524 155.22619508 1747.39301119 159.21660844 1746.09765625 163.20703125 C1745.84111645 163.99728132 1745.58457664 164.78753139 1745.32026291 165.60172844 C1739.949526 182.14663798 1734.595986 198.69707828 1729.25 215.25 C1728.9282247 216.24626341 1728.9282247 216.24626341 1728.59994888 217.26265335 C1721.64702683 238.79012905 1714.70192615 260.32012881 1707.75814819 281.85055542 C1699.16926102 308.48192306 1690.56746994 335.10911432 1681.96316528 361.73550415 C1678.89046003 371.24412991 1675.81813051 380.75287699 1672.74609375 390.26171875 C1672.52962692 390.93174423 1672.3131601 391.60176971 1672.09013367 392.292099 C1670.56007635 397.02806188 1669.03003597 401.76403023 1667.5 406.5 C1665.751314 411.91276427 1664.00261891 417.3255256 1662.25390625 422.73828125 C1661.92923622 423.74322884 1661.92923622 423.74322884 1661.5980072 424.76847839 C1658.52428107 434.28250837 1655.45014437 443.79640561 1652.37575912 453.31022263 C1650.39624738 459.43595201 1648.41683956 465.56171498 1646.4375 471.6875 C1646.22008148 472.36038055 1646.00266296 473.03326111 1645.77865601 473.72653198 C1639.17988226 494.14912361 1632.58754705 514.5737845 1626 535 C1619.19321465 556.10601466 1612.38091527 577.21023946 1605.5625 598.3125 C1605.34522877 598.9849387 1605.12795753 599.6573774 1604.90410233 600.35019302 C1601.38252903 611.24917195 1597.8605617 622.14802353 1594.33854675 633.04685974 C1591.0380108 643.26034606 1587.73761673 653.47387821 1584.4375 663.6875 C1584.2201482 664.3601804 1584.0027964 665.03286079 1583.77885818 665.72592545 C1577.18003908 686.14872638 1570.58761246 706.57358166 1564 727 C1554.99730735 754.91493389 1545.98216137 782.82583391 1536.96316528 810.73550415 C1533.89046003 820.24412991 1530.81813051 829.75287699 1527.74609375 839.26171875 C1527.52962692 839.93174423 1527.3131601 840.60176971 1527.09013367 841.292099 C1525.56007635 846.02806188 1524.03003597 850.76403023 1522.5 855.5 C1520.751314 860.91276427 1519.00261891 866.3255256 1517.25390625 871.73828125 C1517.03745956 872.40824631 1516.82101288 873.07821136 1516.5980072 873.76847839 C1513.52428107 883.28250837 1510.45014437 892.79640561 1507.37575912 902.31022263 C1505.39624738 908.43595201 1503.41683956 914.56171498 1501.4375 920.6875 C1501.22008148 921.36038055 1501.00266296 922.03326111 1500.77865601 922.72653198 C1494.17988226 943.14912361 1487.58754705 963.5737845 1481 984 C1474.19321465 1005.10601466 1467.38091527 1026.21023946 1460.5625 1047.3125 C1460.34522877 1047.9849387 1460.12795753 1048.6573774 1459.90410233 1049.35019302 C1456.38252903 1060.24917195 1452.8605617 1071.14802353 1449.33854675 1082.04685974 C1446.0380108 1092.26034606 1442.73761673 1102.47387821 1439.4375 1112.6875 C1439.2201482 1113.3601804 1439.0027964 1114.03286079 1438.77885818 1114.72592545 C1432.38660174 1134.50943198 1426.00009423 1154.29478572 1419.6186409 1174.08177948 C1412.63812044 1195.72628696 1405.65366749 1217.36951939 1398.66278076 1239.01068115 C1397.83938566 1241.55972555 1397.01612498 1244.10881334 1396.19290161 1246.65791321 C1389.47891532 1267.4441495 1382.73887944 1288.22178839 1376 1309 C1300.43 1309 1224.86 1309 1147 1309 C1145.26469077 1304.37250873 1143.60603561 1299.93708839 1142.18847656 1295.23925781 C1141.8615834 1294.16068512 1141.53469025 1293.08211243 1141.19789124 1291.97085571 C1140.84899338 1290.81000458 1140.50009552 1289.64915344 1140.140625 1288.453125 C1139.76397202 1287.2077597 1139.38731903 1285.96239441 1138.99925232 1284.67929077 C1138.17913247 1281.96758822 1137.36068464 1279.2553888 1136.54354858 1276.54278564 C1135.22280775 1272.15842964 1133.89838446 1267.77519106 1132.57348633 1263.39208984 C1130.92406588 1257.93443057 1129.27559861 1252.476485 1127.62831974 1247.01817894 C1124.54758259 1236.81008163 1121.46083133 1226.60381389 1118.37109375 1216.3984375 C1118.13843685 1215.62994476 1117.90577995 1214.86145203 1117.66607285 1214.06967163 C1116.72129178 1210.94895988 1115.7764962 1207.82825253 1114.83165932 1204.70755768 C1112.171916 1195.92253251 1109.51369415 1187.13704706 1106.85546875 1178.3515625 C1105.87810151 1175.12141653 1104.90072272 1171.89127405 1103.92333984 1168.66113281 C1103.68156824 1167.86210289 1103.43979664 1167.06307297 1103.19069862 1166.23983002 C1099.34500954 1153.53034486 1095.4986073 1140.8210755 1091.65228462 1128.11178207 C1089.97453163 1122.56802256 1088.29682493 1117.02424905 1086.61914062 1111.48046875 C1082.09984594 1096.54684442 1077.5803479 1081.61328171 1073.06022263 1066.67990875 C1062.42519344 1031.54419513 1051.79611899 996.40668814 1041.17388153 961.2671051 C1033.22413611 934.96851083 1025.27122711 908.67087762 1017.3125 882.375 C1017.07788055 881.59981018 1016.84326111 880.82462036 1016.60153198 880.02593994 C1014.47959789 873.01505293 1012.3575888 866.00418861 1010.23550415 858.99334717 C1006.91059942 848.0086793 1003.58603527 837.0239084 1000.26171875 826.0390625 C1000.02418192 825.25414806 999.78664509 824.46923363 999.54191017 823.66053391 C998.3414426 819.69371426 997.14098066 815.72689291 995.94052124 811.7600708 C993.7832331 804.63149441 991.62589518 797.50293309 989.46856117 790.37437057 C988.27070542 786.41624766 987.07285287 782.45812378 985.875 778.5 C985.39583335 776.91666666 984.91666668 775.33333333 984.4375 773.75 C975.8125 745.25 967.1875 716.75 958.5625 688.25 C958.20671497 687.07436273 958.20671497 687.07436273 957.84374237 685.8749752 C957.36460083 684.29172462 956.88545959 682.70847393 956.40631866 681.12522316 C955.2080201 677.16562307 954.00971621 673.2060246 952.81140137 669.24642944 C950.65970599 662.13655766 948.50804678 655.02667495 946.35659027 647.91673088 C945.16483687 643.97833334 943.97305175 640.03994541 942.78125 636.1015625 C942.54503433 635.32097095 942.30881866 634.54037941 942.06544495 633.73613358 C938.8724788 623.18496406 935.67808226 612.63422859 932.48251343 602.08384705 C930.7271981 596.28854783 928.9722269 590.49314442 927.21738625 584.69770145 C925.99364999 580.65626791 924.76978611 576.61487314 923.54559326 572.57357788 C918.75964034 556.77345104 913.98220347 540.97100217 909.2578125 525.15234375 C908.71855133 523.34796844 908.71855133 523.34796844 908.168396 521.50714111 C906.52437448 516.00463747 904.88387401 510.50113081 903.25 504.99560547 C902.69019773 503.11813616 902.13030812 501.24069289 901.5703125 499.36328125 C901.32048615 498.51636215 901.07065979 497.66944305 900.81326294 496.79685974 C899.95487599 493.10555481 899.95487599 493.10555481 898 490 C897.48644958 491.71405533 897.48644958 491.71405533 896.96252441 493.46273804 C892.47675583 508.43401357 887.98900657 523.40469504 883.5 538.375 C883.13235031 539.60106964 882.76470062 540.82713928 882.38591003 542.09036255 C871.04606403 579.90531991 859.66818887 617.70861137 848.25 655.5 C839.6666336 683.91042431 831.08442951 712.32107689 822.5625 740.75 C822.36320515 741.41478867 822.16391029 742.07957733 821.9585762 742.76451111 C819.62743777 750.54066319 817.29740344 758.3171459 814.96777344 766.09375 C808.71083029 786.98011037 802.45034596 807.86540889 796.1875 828.75 C795.83745155 829.91735435 795.48740311 831.08470871 795.12674713 832.28743744 C783.59912369 870.72889114 772.02167125 909.15510335 760.41387939 947.57241821 C751.76846539 976.18567287 743.14320285 1004.80477001 734.5625 1033.4375 C734.19991718 1034.64739342 734.19991718 1034.64739342 733.83000946 1035.88172913 C733.34318536 1037.50621673 732.85636323 1039.13070492 732.36954308 1040.75519371 C731.16313321 1044.78083755 729.95661747 1048.80644963 728.75 1052.83203125 C728.51282887 1053.62331295 728.27565773 1054.41459465 728.03129959 1055.22985458 C722.39450962 1074.03410539 716.72850127 1092.82953502 711.0625 1111.625 C703.87373555 1135.47189381 696.69891615 1159.32292324 689.54296875 1183.1796875 C688.99737903 1184.9985742 688.99737903 1184.9985742 688.44076729 1186.85420609 C684.83433094 1198.8778368 681.22891853 1210.90177411 677.62493992 1222.92614174 C674.04634356 1234.86566307 670.46469311 1246.80426205 666.87915039 1258.74169922 C665.60819351 1262.9734178 664.33863021 1267.20555114 663.07006836 1271.43798828 C661.53088305 1276.5727565 659.98851757 1281.70655896 658.44373322 1286.83964539 C657.87093373 1288.74483713 657.29923601 1290.6503605 656.7286911 1292.55622864 C655.95131825 1295.15231903 655.17003223 1297.74719888 654.38769531 1300.34179688 C654.15856194 1301.11032486 653.92942856 1301.87885284 653.69335175 1302.67066956 C652.11414182 1307.88585818 652.11414182 1307.88585818 651 1309 C648.05433166 1309.09797685 645.13210235 1309.12991709 642.1860199 1309.12025452 C641.25003198 1309.12110894 640.31404407 1309.12196337 639.34969288 1309.12284368 C636.18810635 1309.12450135 633.02657194 1309.11897245 629.86499023 1309.11352539 C627.6087138 1309.11324355 625.35243727 1309.11340118 623.09616089 1309.1139679 C616.94971395 1309.11425601 610.80328633 1309.10835704 604.6568439 1309.10139394 C598.24128742 1309.0951627 591.82573055 1309.09455678 585.41017151 1309.09336853 C574.63517863 1309.09060882 563.86019424 1309.08435328 553.08520508 1309.07543945 C541.98494503 1309.06626607 530.8846869 1309.05918487 519.78442383 1309.05493164 C519.10066456 1309.05466892 518.4169053 1309.05440619 517.71242606 1309.05413551 C514.28234439 1309.05283051 510.8522627 1309.05156679 507.42218101 1309.05032361 C478.94811576 1309.03995011 450.47405826 1309.0222569 422 1309 C419.31499386 1300.70169664 416.63004902 1292.40337346 413.94517291 1284.10502803 C412.6971289 1280.24761191 411.4490673 1276.39020148 410.20095825 1272.5328064 C398.12311796 1235.20502976 386.05313887 1197.87469971 374.01171875 1160.53515625 C373.80731926 1159.90133278 373.60291977 1159.26750931 373.39232635 1158.61447906 C371.74311679 1153.50038301 370.09396346 1148.38626883 368.44487762 1143.27213287 C361.64265197 1122.17729498 354.82519969 1101.08741516 348 1080 C340.34896183 1056.36104063 332.71104856 1032.71789438 325.08601189 1009.07053566 C324.05607475 1005.87643938 323.02610104 1002.6823549 321.99609375 999.48828125 C321.7919775 998.8553075 321.58786125 998.22233376 321.37755966 997.57017899 C316.42460119 982.21144048 311.46241365 966.85568557 306.5 951.5 C301.33100708 935.50507584 296.16286465 919.50988277 291.00390625 903.51171875 C290.69765635 902.56203154 290.69765635 902.56203154 290.38521957 901.59315872 C289.3557352 898.40065915 288.32629579 895.20814508 287.296875 892.015625 C286.88541727 890.73958314 286.47395894 889.46354147 286.0625 888.1875 C285.85881805 887.55582916 285.65513611 886.92415833 285.44528198 886.27334595 C278.64297272 865.17808725 271.82533091 844.08782056 265 823 C257.34896183 799.36104063 249.71104856 775.71789438 242.08601189 752.07053566 C241.05607475 748.87643938 240.02610104 745.6823549 238.99609375 742.48828125 C238.7919775 741.8553075 238.58786125 741.22233376 238.37755966 740.57017899 C233.42460118 725.21144045 228.46237179 709.85569913 223.5 694.5 C216.86752402 673.97605364 210.24020182 653.45045602 203.62001419 632.92254257 C196.60670159 611.17563379 189.58800407 589.43047347 182.5625 567.6875 C182.34508148 567.01461945 182.12766296 566.34173889 181.90365601 565.64846802 C179.92357795 559.52044966 177.94341359 553.39245919 175.96316528 547.26449585 C172.89046003 537.75587009 169.81813051 528.24712301 166.74609375 518.73828125 C166.52962692 518.06825577 166.3131601 517.39823029 166.09013367 516.707901 C164.34153947 511.29550427 162.59296831 505.8831001 160.8443985 500.4706955 C159.31424534 495.73436639 157.78408175 490.99804064 156.25390625 486.26171875 C156.03745956 485.59175369 155.82101288 484.92178864 155.5980072 484.23152161 C152.52428107 474.71749163 149.45014437 465.20359439 146.37575912 455.68977737 C137.3699871 427.82082313 128.36909223 399.95030902 119.37953949 372.07611847 C112.77954095 351.61140866 106.17379797 331.14856228 99.5625 310.6875 C99.34508148 310.01461945 99.12766296 309.34173889 98.90365601 308.64846802 C96.92357795 302.52044966 94.94341359 296.39245919 92.96316528 290.26449585 C89.89046003 280.75587009 86.81813051 271.24712301 83.74609375 261.73828125 C83.52962692 261.06825577 83.3131601 260.39823029 83.09013367 259.707901 C81.34153947 254.29550427 79.59296831 248.8831001 77.8443985 243.4706955 C76.31424534 238.73436639 74.78408175 233.99804064 73.25390625 229.26171875 C72.92923622 228.25677116 72.92923622 228.25677116 72.5980072 227.23152161 C69.52428107 217.71749163 66.45014437 208.20359439 63.37575912 198.68977737 C53.75895725 168.92995106 44.1483597 139.16813943 34.55004883 109.40234375 C30.37556437 96.45742393 26.19759885 83.51363894 22.01325226 70.57190323 C21.2919603 68.34099397 20.57074373 66.11006035 19.84954834 63.87911987 C17.06665913 55.27048714 17.06665913 55.27048714 14.28222656 46.66235352 C11.51507139 38.11029695 8.7526685 29.55673351 6 21 C5.67173218 19.98033142 5.34346436 18.96066284 5.00524902 17.91009521 C4.13280561 15.19507453 3.26460227 12.47874796 2.3984375 9.76171875 C2.02436264 8.5985186 2.02436264 8.5985186 1.64273071 7.41181946 C0 2.23173295 0 2.23173295 0 0 Z " fill="#008FD4" transform="translate(1193,383)"/>
<path d="M0 0 C283.8 0 567.6 0 860 0 C860 83.49 860 166.98 860 253 C672.89 253 485.78 253 293 253 C293 348.7 293 444.4 293 543 C470.21 543 647.42 543 830 543 C830 626.82 830 710.64 830 797 C652.79 797 475.58 797 293 797 C293 965.96 293 1134.92 293 1309 C196.31 1309 99.62 1309 0 1309 C0 877.03 0 445.06 0 0 Z " fill="#008FD4" transform="translate(299,383)"/>
<path d="M0 0 C656.93578352 0 656.93578352 0 741 27 C742 28 742 28 742.1241985 29.94521481 C742.12381878 30.80755968 742.12343906 31.66990455 742.12304783 32.55838108 C742.12503888 33.54965647 742.12702993 34.54093186 742.12908131 35.56224591 C742.12616847 36.66436238 742.12325563 37.76647885 742.12025452 38.9019928 C742.12110894 40.06257609 742.12196337 41.22315939 742.12284368 42.41891187 C742.12421184 45.65471422 742.12106447 48.89047704 742.11606562 52.1262747 C742.11176434 55.61027061 742.11320731 59.09426452 742.1139679 62.57826233 C742.11449334 68.61930343 742.11134444 74.66033376 742.10573006 80.70137215 C742.09761777 89.43579829 742.09500012 98.17021921 742.09374207 106.90464871 C742.09155112 121.07421212 742.08488988 135.24376979 742.07543945 149.41333008 C742.06626644 163.18123343 742.05918507 176.94913523 742.05493164 190.71704102 C742.05466892 191.56508504 742.05440619 192.41312906 742.05413551 193.28687138 C742.05283051 197.54107697 742.05156679 201.79528258 742.05032361 206.04948819 C742.03994966 241.36632955 742.02233019 276.68316425 742 312 C738.32429179 310.58091486 735.25673836 308.97047633 731.98046875 306.7734375 C725.97524643 302.89178067 719.76069138 299.70209615 713.3125 296.625 C712.13768066 296.06337158 710.96286133 295.50174316 709.75244141 294.9230957 C698.41648961 289.56300632 686.85165996 285.07449479 675 281 C674.01386719 280.65630371 673.02773437 280.31260742 672.01171875 279.95849609 C640.19844149 268.96723574 607.03930735 262.42662392 573.5625 259.25 C572.3451416 259.13430664 571.1277832 259.01861328 569.87353516 258.89941406 C478.25871254 250.90544068 385.96213202 256.38158561 294 256 C294 518.68 294 781.36 294 1052 C443.08920959 1056.38940026 443.08920959 1056.38940026 591.1875 1047.1875 C592.42048828 1047.01573242 593.65347656 1046.84396484 594.92382812 1046.66699219 C646.6279859 1039.25226048 697.48083889 1023.8244757 742 996 C742 1090.05 742 1184.1 742 1281 C706.59274602 1290.4419344 706.59274602 1290.4419344 693.125 1293.125 C691.92905716 1293.36663879 691.92905716 1293.36663879 690.70895386 1293.61315918 C467.35339812 1338.55308107 204.81785543 1309 0 1309 C0 877.03 0 445.06 0 0 Z " fill="#20BDC5" transform="translate(3032,383)"/>
<path d="M0 0 C137 0 137 0 165 17 C171.29499891 20.73308075 177.59215698 24.46077931 183.89941406 28.17285156 C190.14746888 31.85477615 196.38729901 35.55056711 202.625 39.25 C203.30781036 39.65488647 203.99062073 40.05977295 204.69412231 40.47692871 C214.8070159 46.47670631 224.87173472 52.55118355 234.90948486 58.67565918 C244.31818574 64.41272885 253.80177492 70.01163647 263.32156372 75.56204224 C272.31168731 80.80621816 281.23969641 86.14270631 290.125 91.5625 C302.49222741 99.10465773 314.93584949 106.51218642 327.40869141 113.87841797 C333.92185191 117.72544067 340.43101593 121.57919707 346.9375 125.4375 C347.94842209 126.03685364 347.94842209 126.03685364 348.97976685 126.64831543 C358.99808188 132.59093406 368.96740248 138.60962113 378.91085815 144.67648315 C388.75588423 150.67961593 398.67556123 156.5464227 408.65307617 162.32666016 C421.89113996 170.02609688 434.89993261 178.04638766 448 186 C448 143.1 448 100.2 448 56 C454.81261607 59.7159724 461.0957136 63.19944162 467.3125 67.6875 C468.03614746 68.20513916 468.75979492 68.72277832 469.50537109 69.25610352 C476.5042444 74.29907049 483.32959547 79.53064836 490 85 C490.56299805 85.45858398 491.12599609 85.91716797 491.70605469 86.38964844 C500.37379298 93.50554237 508.42643709 101.22240477 516.375 109.125 C517.29023438 110.03096924 518.20546875 110.93693848 519.1484375 111.87036133 C525.19021942 117.94013478 530.67648603 124.29611758 536 131 C536.90528263 132.09952871 537.81241308 133.19754308 538.72265625 134.29296875 C568.13785081 170.68138138 608 233.26489657 608 282 C604.13859778 280.56594155 600.70214215 278.76853075 597.15234375 276.68359375 C596.59229141 276.35557266 596.03223907 276.02755157 595.45521545 275.68959045 C593.61375607 274.6092897 591.77554134 273.52360457 589.9375 272.4375 C588.63611021 271.67180276 587.33467719 270.90617899 586.03320312 270.140625 C576.72731968 264.65644205 567.48549588 259.07042099 558.26657104 253.44161987 C549.40026521 248.02966645 540.47400634 242.73125504 531.5 237.5 C521.31579551 231.56259957 511.20365022 225.51956959 501.14059448 219.37918091 C491.24883413 213.34410174 481.30306803 207.40626937 471.31787109 201.52709961 C463.81857441 197.10517322 456.41815962 192.5650213 449 188 C449 326.6 449 465.2 449 608 C466.27170497 598.14771986 466.27170497 598.14771986 483.3125 587.9375 C485.70814744 586.47281549 488.10574739 585.01134951 490.50390625 583.55078125 C491.11398529 583.17910828 491.72406433 582.8074353 492.35263062 582.42449951 C499.45369168 578.10525064 506.59995608 573.86250189 513.75 569.625 C514.41476349 569.23087921 515.07952698 568.83675842 515.76443481 568.43069458 C521.18864934 565.21521975 526.61501533 562.00338306 532.04150391 558.79174805 C536.77868047 555.98787003 541.51497575 553.18251131 546.25 550.375 C546.91109772 549.98307465 547.57219543 549.59114929 548.25332642 549.18734741 C558.43945215 543.14557599 568.57890675 537.03023658 578.69262695 530.86813354 C588.0747541 525.15183434 597.50239439 519.52217926 607 514 C608.54001067 517.08002134 607.16792151 519.74429103 606.26171875 522.90234375 C606.0657309 523.60304993 605.86974304 524.3037561 605.66781616 525.0256958 C605.01763884 527.33258867 604.35418589 529.63532669 603.6875 531.9375 C603.34729324 533.11972641 603.34729324 533.11972641 603.00021362 534.32583618 C588.53067672 584.39961099 565.56631969 631.67941304 531 671 C530.38898437 671.71027344 529.77796875 672.42054688 529.1484375 673.15234375 C527.45115506 675.11909995 525.72933863 677.06137835 524 679 C523.23816406 679.86625 522.47632812 680.7325 521.69140625 681.625 C510.43129724 694.20687515 498.12827674 705.56170906 484.65722656 715.73681641 C483.0329841 716.97485861 481.43215785 718.23782168 479.8359375 719.51171875 C473.76052747 724.33339793 467.50163885 728.76812288 461 733 C460.28158936 733.46921875 459.56317871 733.9384375 458.82299805 734.421875 C458.13890869 734.86015625 457.45481934 735.2984375 456.75 735.75 C455.84507812 736.33007812 455.84507812 736.33007812 454.921875 736.921875 C453 738 453 738 448 740 C447.505 676.145 447.505 676.145 447 611 C423.47846482 624.96391985 423.47846482 624.96391985 400 639 C391.69925183 643.92409918 391.69925183 643.92409918 388.7277832 645.68212891 C377.04764214 652.5958103 365.39872726 659.55500354 353.8125 666.625 C343.82956901 672.71646005 333.77596748 678.67440329 323.67340088 684.56506348 C314.79007689 689.74742329 305.9668469 695.01847371 297.1875 700.375 C287.24589408 706.43927433 277.26746619 712.43681363 267.25 718.375 C266.58451141 718.76957397 265.91902283 719.16414795 265.23336792 719.57067871 C259.80988696 722.78569758 254.38424153 725.99705676 248.95849609 729.20825195 C244.22131951 732.01212998 239.48505682 734.8175436 234.75 737.625 C234.08491425 738.01925171 233.41982849 738.41350342 232.73458862 738.81970215 C222.8118803 744.70453903 212.93935442 750.667384 203.09078979 756.67529297 C193.15472945 762.73276861 183.14345069 768.65357709 173.08325195 774.50244141 C160.98092897 781.55050306 149.01433497 788.79139902 137 796 C91.79 796 46.58 796 0 796 C0 533.32 0 270.64 0 0 Z " fill="#FFCB05" transform="translate(3326,639)"/>
<path d="M0 0 C4.03621889 1.48562427 7.60213077 3.41513958 11.3046875 5.59765625 C12.20624069 6.12739296 12.20624069 6.12739296 13.12600708 6.66783142 C15.04426917 7.79614526 16.95962178 8.92929911 18.875 10.0625 C20.12221651 10.79652875 21.36961105 11.53025507 22.6171875 12.26367188 C29.55673955 16.34835889 36.47060365 20.47481478 43.37187195 24.62379456 C47.732317 27.2438329 52.10279418 29.84636025 56.48046875 32.4375 C57.10275864 32.80589493 57.72504852 33.17428986 58.36619568 33.55384827 C59.64568008 34.31124674 60.92517547 35.06862666 62.2046814 35.82598877 C73.23979712 42.35979361 84.24030516 48.94494556 95.1875 55.625 C104.56853696 61.34919181 114.00646231 66.96445575 123.5 72.5 C132.99354693 78.03554964 142.43121115 83.65121201 151.8125 89.375 C161.75410592 95.43927433 171.73253381 101.43681363 181.75 107.375 C182.41548859 107.76957397 183.08097717 108.16414795 183.76663208 108.57067871 C188.5098957 111.38246733 193.25475584 114.19155545 198 117 C203.41776937 120.2064746 208.83475917 123.41425659 214.25 126.625 C214.91508575 127.01925171 215.58017151 127.41350342 216.26541138 127.81970215 C226.18915284 133.70515175 236.06307152 139.66805784 245.91223145 145.67730713 C254.719749 151.04781321 263.58859982 156.3038917 272.5 161.5 C281.99354693 167.03554964 291.43121115 172.65121201 300.8125 178.375 C310.75410592 184.43927433 320.73253381 190.43681363 330.75 196.375 C331.41548859 196.76957397 332.08097717 197.16414795 332.76663208 197.57067871 C337.5098957 200.38246733 342.25475584 203.19155545 347 206 C352.41776937 209.2064746 357.83475917 212.41425659 363.25 215.625 C363.91508575 216.01925171 364.58017151 216.41350342 365.26541138 216.81970215 C375.18915284 222.70515175 385.06307152 228.66805784 394.91223145 234.67730713 C403.719749 240.04781321 412.58859982 245.3038917 421.5 250.5 C430.99354693 256.03554964 440.43121115 261.65121201 449.8125 267.375 C459.75410592 273.43927433 469.73253381 279.43681363 479.75 285.375 C480.74823288 285.96686096 480.74823288 285.96686096 481.76663208 286.57067871 C486.5098957 289.38246733 491.25475584 292.19155545 496 295 C501.41776937 298.2064746 506.83475917 301.41425659 512.25 304.625 C512.91508575 305.01925171 513.58017151 305.41350342 514.26541138 305.81970215 C524.18915284 311.70515175 534.06307152 317.66805784 543.91223145 323.67730713 C552.719749 329.04781321 561.58859982 334.3038917 570.5 339.5 C579.99354693 345.03554964 589.43121115 350.65121201 598.8125 356.375 C608.75410592 362.43927433 618.73253381 368.43681363 628.75 374.375 C629.74823288 374.96686096 629.74823288 374.96686096 630.76663208 375.57067871 C635.5098957 378.38246733 640.25475584 381.19155545 645 384 C650.41776937 387.2064746 655.83475917 390.41425659 661.25 393.625 C661.91508575 394.01925171 662.58017151 394.41350342 663.26541138 394.81970215 C673.18616039 400.70337702 683.05822692 406.66275833 692.90316772 412.67227173 C701.27995749 417.78297864 709.71457002 422.78450757 718.19360352 427.72360229 C767.49283824 456.44741017 767.49283824 456.44741017 781 478 C781.58394531 478.90105469 782.16789062 479.80210937 782.76953125 480.73046875 C797.57641787 504.63439683 801.79420142 534.68522695 795.54345703 561.99462891 C790.69530149 581.90420138 780.95479633 599.28042771 766.5625 613.875 C765.96622803 614.48158447 765.36995605 615.08816895 764.75561523 615.71313477 C755.6471077 624.64513509 744.54920032 630.77657833 733.625 637.1875 C732.18071374 638.03924598 730.73670612 638.8914646 729.29296875 639.74414062 C727.14510733 641.01262203 724.99710714 642.28085825 722.84820557 643.5475769 C717.54911499 646.67142884 712.26839405 649.8246317 707 653 C697.64984871 658.62723776 688.2628929 664.19204213 678.87695312 669.75927734 C670.90654496 674.48732936 662.94058966 679.2219629 655 684 C646.45844166 689.13959076 637.88663648 694.22753576 629.3125 699.3125 C619.69350139 705.01720625 610.08418966 710.73691162 600.5 716.5 C590.33180613 722.61421351 580.13372249 728.67689234 569.92822266 734.72851562 C560.10811288 740.55231211 550.30718575 746.40675743 540.52270508 752.2902832 C531.23261244 757.87151434 521.9129576 763.40238119 512.59130859 768.93066406 C504.71603169 773.60146694 496.84548805 778.27925296 489 783 C480.45843817 788.139585 471.88663652 793.22753574 463.3125 798.3125 C453.69350141 804.01720624 444.08418738 809.73690783 434.5 815.5 C424.21960293 821.68173179 413.90907839 827.81162332 403.59130859 833.93066406 C395.71603169 838.60146694 387.84548805 843.27925296 380 848 C371.45843817 853.139585 362.88663652 858.22753574 354.3125 863.3125 C344.69350139 869.01720625 335.08418966 874.73691162 325.5 880.5 C315.33180613 886.61421351 305.13372249 892.67689234 294.92822266 898.72851562 C285.10811288 904.55231211 275.30718575 910.40675743 265.52270508 916.2902832 C256.23261244 921.87151434 246.9129576 927.40238119 237.59130859 932.93066406 C229.71603169 937.60146694 221.84548805 942.27925296 214 947 C205.45843817 952.139585 196.88663652 957.22753574 188.3125 962.3125 C178.69350139 968.01720625 169.08418966 973.73691162 159.5 979.5 C149.33180613 985.61421351 139.13372249 991.67689234 128.92822266 997.72851562 C119.10811288 1003.55231211 109.30718575 1009.40675743 99.52270508 1015.2902832 C90.23261244 1020.87151434 80.9129576 1026.40238119 71.59130859 1031.93066406 C63.71602708 1036.60146968 55.84585034 1041.27984879 48 1046 C44.66778955 1048.0018755 41.33426335 1050.00154563 38 1052 C37.08459442 1052.54871765 37.08459442 1052.54871765 36.1506958 1053.10852051 C31.85500746 1055.68258045 27.55641324 1058.25171139 23.25512695 1060.81640625 C21.80481133 1061.68197709 20.35525362 1062.54881925 18.90649414 1063.41699219 C16.86807644 1064.63820108 14.82694955 1065.85475815 12.78515625 1067.0703125 C12.17454849 1067.43746368 11.56394073 1067.80461487 10.93482971 1068.18289185 C7.70689355 1070.0976579 4.52905725 1071.71753653 1 1073 C4.36581566 1069.46189396 7.75253017 1066.6424093 11.8125 1063.9375 C24.81261217 1055.12195719 37.10898018 1045.43223478 49.22802734 1035.45166016 C50.79472964 1034.16816445 52.37491124 1032.90116076 53.95703125 1031.63671875 C59.83885744 1026.92609075 65.4002018 1021.94697417 70.87939453 1016.77929688 C73.74690171 1014.07591177 76.64327163 1011.43798394 79.640625 1008.87890625 C84.96733027 1004.24531906 89.92031901 999.22918546 94.90014648 994.23022461 C96.5592732 992.56573723 98.22368051 990.90666553 99.88867188 989.24804688 C105.47049823 983.66971203 110.87592311 978.00544972 116 972 C117.61967817 970.22429779 119.24411718 968.45291693 120.875 966.6875 C125.7957178 961.28508543 130.42792553 955.69831141 135 950 C135.91225289 948.87979484 136.82503803 947.76002295 137.73828125 946.640625 C176.85543313 898.50048516 209.0466786 843.62621833 232 786 C232.4532666 784.86804199 232.9065332 783.73608398 233.37353516 782.56982422 C256.68148392 723.94531929 270.37609153 662.30848466 275.6875 599.5 C275.74852905 598.78261658 275.80955811 598.06523315 275.87243652 597.32611084 C277.52530488 577.57416334 278.210373 557.81818597 278.1875 538 C278.18689575 537.01443115 278.1862915 536.0288623 278.18566895 535.01342773 C278.10106317 483.51120764 273.78864916 431.39854797 261.76757812 381.20800781 C261.2027735 378.84746939 260.64829281 376.48445481 260.09960938 374.12011719 C250.49863838 332.76262234 236.54768179 293.18113538 218.32666016 254.80908203 C217.15976629 252.33829056 216.01599129 249.85923739 214.88671875 247.37109375 C189.69092551 192.08568423 152.80852316 141.00488322 111.50097656 96.61425781 C109.85868757 94.84802248 108.22237112 93.07634846 106.5859375 91.3046875 C93.46579273 77.11010386 93.46579273 77.11010386 79.28125 64 C76.80732751 61.83108165 74.41116879 59.59172871 72.01342773 57.33935547 C65.55004663 51.27091556 58.92637336 45.53926146 52 40 C50.80841891 39.01871778 49.61841404 38.03551955 48.4296875 37.05078125 C34.49730894 25.54357067 19.93724512 14.91900605 5.07836914 4.64233398 C3.36882426 3.45193085 1.68165794 2.22948359 0 1 C0 0.67 0 0.34 0 0 Z " fill="#EB008C" transform="translate(3970,500)"/>
<path d="M0 0 C0 94.05 0 188.1 0 285 C-35.40725398 294.4419344 -35.40725398 294.4419344 -48.875 297.125 C-50.07094284 297.36663879 -50.07094284 297.36663879 -51.29104614 297.61315918 C-89.86495137 305.37436432 -128.99720423 310.24839103 -168.30110168 312.09518433 C-169.65324266 312.15909299 -169.65324266 312.15909299 -171.03269962 312.22429274 C-195.17742585 313.33080018 -219.32465319 313.27198987 -243.48946607 313.23213124 C-249.51287456 313.22424504 -255.53627664 313.22606451 -261.5596883 313.22749493 C-273.84118495 313.23009159 -286.12265971 313.22356066 -298.40415001 313.21146011 C-310.52937619 313.1995447 -322.65459321 313.191912 -334.77982521 313.18975449 C-335.9191276 313.18954827 -335.9191276 313.18954827 -337.08144619 313.18933788 C-340.94018567 313.18866103 -344.79892515 313.18805833 -348.65766463 313.18748413 C-375.84819861 313.18330545 -403.03872073 313.16989331 -430.22924805 313.15087891 C-456.61173439 313.13245113 -482.99421747 313.11831295 -509.37670898 313.10986328 C-510.19278411 313.10960023 -511.00885924 313.10933718 -511.84966391 313.10906615 C-520.0465102 313.10642866 -528.24335651 313.1038771 -536.44020284 313.10138843 C-553.131751 313.09631871 -569.82329895 313.09067622 -586.5148468 313.08468628 C-587.28196224 313.0844117 -588.04907768 313.08413712 -588.83943904 313.08385422 C-639.89296438 313.06551466 -690.94648281 313.03378965 -742 313 C-738.50691559 310.16015452 -735.05445535 307.73970289 -731.15234375 305.48828125 C-730.31212929 305.00042648 -730.31212929 305.00042648 -729.4549408 304.50271606 C-728.24814463 303.80217709 -727.040375 303.10331286 -725.83172607 302.40597534 C-722.5604207 300.51755673 -719.29759196 298.61462724 -716.03515625 296.7109375 C-715.36432007 296.31964157 -714.69348389 295.92834564 -714.00231934 295.52519226 C-707.24503299 291.57465128 -700.55536064 287.51634512 -693.875 283.4375 C-681.50866808 275.89389281 -669.06412758 268.48780004 -656.59130859 261.12158203 C-650.07814809 257.27455933 -643.56898407 253.42080293 -637.0625 249.5625 C-636.38855194 249.16293091 -635.71460388 248.76336182 -635.02023315 248.35168457 C-625.00191812 242.40906594 -615.03259752 236.39037887 -605.08914185 230.32351685 C-595.67922416 224.58569707 -586.19422762 218.98639262 -576.67340088 213.43493652 C-567.79007689 208.25257671 -558.9668469 202.98152629 -550.1875 197.625 C-540.24589408 191.56072567 -530.26746619 185.56318637 -520.25 179.625 C-519.58451141 179.23042603 -518.91902283 178.83585205 -518.23336792 178.42932129 C-512.80988696 175.21430242 -507.38424153 172.00294324 -501.95849609 168.79174805 C-497.22131951 165.98787002 -492.48505682 163.1824564 -487.75 160.375 C-487.08491425 159.98074829 -486.41982849 159.58649658 -485.73458862 159.18029785 C-475.81084716 153.29484825 -465.93692848 147.33194216 -456.08776855 141.32269287 C-446.6799868 135.58616736 -437.19730244 129.9878256 -427.67843628 124.43795776 C-418.68831269 119.19378184 -409.76030359 113.85729369 -400.875 108.4375 C-389.10224789 101.25788323 -377.26294744 94.19646363 -365.38925171 87.18487549 C-358.69649409 83.23208541 -352.012322 79.26484124 -345.32873535 75.29656982 C-342.76742913 73.77601517 -340.20563008 72.25629185 -337.64373779 70.73672485 C-336.94146057 70.31958221 -336.23918335 69.90243958 -335.515625 69.47265625 C-334.95844599 69.1521977 -334.40126698 68.83173916 -333.82720375 68.50156975 C-330.69283627 66.67881918 -327.7942408 64.84232933 -324.90792847 62.63058472 C-312.98158177 53.98610594 -301.00801719 54.78671764 -286.7421875 54.97265625 C-284.18750579 54.97207954 -281.63282189 54.96723052 -279.07815552 54.95835876 C-273.05296533 54.94646592 -267.02920042 54.97271468 -261.00428212 55.01952976 C-250.94357309 55.09583615 -240.88276563 55.09216231 -230.82180786 55.09165955 C-225.8448372 55.09144275 -220.86863886 55.11106028 -215.89181519 55.14820862 C-194.14593053 55.2626083 -172.36106208 54.25947936 -150.8125 51.1875 C-149.57951172 51.01573242 -148.34652344 50.84396484 -147.07617188 50.66699219 C-106.21944269 44.80785632 -26.84142298 0 0 0 Z " fill="#008FD3" transform="translate(3774,1379)"/>
<path d="M0 0 C53.25843135 -0.0514503 106.51686485 -0.09919941 159.77531433 -0.12702942 C160.56587959 -0.12744359 161.35644485 -0.12785776 162.17096663 -0.12828448 C179.35970196 -0.13726706 196.54843756 -0.14557706 213.73717355 -0.15319599 C222.16877656 -0.1569374 230.60037951 -0.16082714 239.03198242 -0.16479492 C239.8709459 -0.1651872 240.70990939 -0.16557948 241.574296 -0.16598364 C268.67726794 -0.1787256 295.78022089 -0.20122773 322.88318136 -0.22889166 C350.77797037 -0.25731153 378.67274891 -0.27568444 406.56755215 -0.28174497 C410.52418302 -0.2826092 414.48081386 -0.2835861 418.43744469 -0.28463173 C419.21602552 -0.284834 419.99460635 -0.28503627 420.79678054 -0.28524467 C433.23690962 -0.28876443 445.67700592 -0.30260902 458.11712173 -0.3204961 C470.67987866 -0.33833258 483.24260371 -0.34486095 495.80537281 -0.34050413 C502.58930663 -0.33844905 509.37313451 -0.3412928 516.15705681 -0.35761642 C590.47059291 -0.52724506 668.65732799 4.08594424 740 27 C741 28 741 28 741.1241985 29.94521481 C741.12381878 30.80755968 741.12343906 31.66990455 741.12304783 32.55838108 C741.12503888 33.54965647 741.12702993 34.54093186 741.12908131 35.56224591 C741.12616847 36.66436238 741.12325563 37.76647885 741.12025452 38.9019928 C741.12110894 40.06257609 741.12196337 41.22315939 741.12284368 42.41891187 C741.12421184 45.65471422 741.12106447 48.89047704 741.11606562 52.1262747 C741.11176434 55.61027061 741.11320731 59.09426452 741.1139679 62.57826233 C741.11449334 68.61930343 741.11134444 74.66033376 741.10573006 80.70137215 C741.09761777 89.43579829 741.09500012 98.17021921 741.09374207 106.90464871 C741.09155112 121.07421212 741.08488988 135.24376979 741.07543945 149.41333008 C741.06626644 163.18123343 741.05918507 176.94913523 741.05493164 190.71704102 C741.05466892 191.56508504 741.05440619 192.41312906 741.05413551 193.28687138 C741.05283051 197.54107697 741.05156679 201.79528258 741.05032361 206.04948819 C741.03994966 241.36632955 741.02233019 276.68316425 741 312 C737.32429179 310.58091486 734.25673836 308.97047633 730.98046875 306.7734375 C724.97524643 302.89178067 718.76069138 299.70209615 712.3125 296.625 C711.13768066 296.06337158 709.96286133 295.50174316 708.75244141 294.9230957 C697.41648961 289.56300632 685.85165996 285.07449479 674 281 C673.01386719 280.65630371 672.02773437 280.31260742 671.01171875 279.95849609 C639.19844149 268.96723574 606.03930735 262.42662392 572.5625 259.25 C571.3451416 259.13430664 570.1277832 259.01861328 568.87353516 258.89941406 C550.03731309 257.25583442 531.17245217 256.86723194 512.27365875 256.89246559 C506.46104174 256.89608154 500.6485104 256.87012773 494.8359375 256.84960938 C487.50870401 256.82526177 480.18176086 256.80971223 472.85449219 256.82495117 C466.86251241 256.83663404 460.87122754 256.81918966 454.87935638 256.78250694 C452.61651859 256.77393721 450.35361347 256.7759013 448.09079742 256.789011 C426.09477662 256.90717835 426.09477662 256.90717835 417 250 C415.78366913 249.2753231 414.5582584 248.56551612 413.3215332 247.8762207 C412.24218506 247.23257568 411.16283691 246.58893066 410.05078125 245.92578125 C409.44338608 245.56440567 408.83599091 245.20303009 408.21018982 244.83070374 C406.24316348 243.65985361 404.27781578 242.48621867 402.3125 241.3125 C400.90734497 240.47522443 399.50206894 239.6381519 398.09667969 238.80126953 C395.9161415 237.50272498 393.73571344 236.20399863 391.55575562 234.90447998 C386.63445843 231.97107745 381.70779447 229.04689398 376.77734375 226.12890625 C363.50065671 218.26869548 350.2588426 210.35873532 337.08776855 202.32269287 C328.280251 196.95218679 319.41140018 191.6961083 310.5 186.5 C301.00645307 180.96445036 291.56878885 175.34878799 282.1875 169.625 C272.24589408 163.56072567 262.26746619 157.56318637 252.25 151.625 C251.58451141 151.23042603 250.91902283 150.83585205 250.23336792 150.42932129 C245.4901043 147.61753267 240.74524416 144.80844455 236 142 C230.58223063 138.7935254 225.16524083 135.58574341 219.75 132.375 C219.08491425 131.98074829 218.41982849 131.58649658 217.73458862 131.18029785 C207.81084716 125.29484825 197.93692848 119.33194216 188.08776855 113.32269287 C179.280251 107.95218679 170.41140018 102.6961083 161.5 97.5 C152.00645307 91.96445036 142.56878885 86.34878799 133.1875 80.625 C123.24589408 74.56072567 113.26746619 68.56318637 103.25 62.625 C102.58451141 62.23042603 101.91902283 61.83585205 101.23336792 61.42932129 C96.4901043 58.61753267 91.74524416 55.80844455 87 53 C81.58223069 49.79352544 76.16518066 46.58584482 70.75 43.375 C70.08557892 42.98108063 69.42115784 42.58716125 68.73660278 42.18130493 C58.21009244 35.93721006 47.7349941 29.61244291 37.28710938 23.23779297 C31.29940643 19.59006222 25.29449862 15.9772556 19.25390625 12.41796875 C18.6209111 12.04472977 17.98791595 11.67149078 17.33573914 11.28694153 C14.28525087 9.48949191 11.23195914 7.69704616 8.17456055 5.91137695 C7.10117432 5.28062256 6.02778809 4.64986816 4.921875 4 C3.96893555 3.443125 3.01599609 2.88625 2.03417969 2.3125 C1.36290039 1.879375 0.69162109 1.44625 0 1 C0 0.67 0 0.34 0 0 Z " fill="#008FD3" transform="translate(3033,383)"/>
<path d="M0 0 C9.23165015 5.27522865 18.45171338 10.56248802 27.625 15.9375 C28.24117187 16.29827637 28.85734375 16.65905273 29.4921875 17.03076172 C39.29968383 22.77765434 49.034633 28.63594771 58.73590088 34.56002808 C67.60139503 39.97140736 76.52690238 45.26915936 85.5 50.5 C94.99369979 56.03528066 104.43121713 61.65121566 113.8125 67.375 C123.75410592 73.43927433 133.73253381 79.43681363 143.75 85.375 C144.41548859 85.76957397 145.08097717 86.16414795 145.76663208 86.57067871 C150.5098957 89.38246733 155.25475584 92.19155545 160 95 C165.41776937 98.2064746 170.83475917 101.41425659 176.25 104.625 C176.91508575 105.01925171 177.58017151 105.41350342 178.26541138 105.81970215 C188.18915284 111.70515175 198.06307152 117.66805784 207.91223145 123.67730713 C216.719749 129.04781321 225.58859982 134.3038917 234.5 139.5 C243.99354693 145.03554964 253.43121115 150.65121201 262.8125 156.375 C272.75410716 162.43927509 282.73257939 168.43673485 292.75 174.375 C293.7397583 174.96187592 293.7397583 174.96187592 294.74951172 175.56060791 C300.94959414 179.23627918 307.15258928 182.90702538 313.35595703 186.57714844 C316.98077985 188.72182983 320.60459482 190.86820657 324.22790527 193.01544189 C326.24517226 194.21012654 328.26366203 195.40272433 330.28222656 196.59521484 C351.60678999 209.21357997 351.60678999 209.21357997 353 212 C351.74231812 212.74552124 351.74231812 212.74552124 350.45922852 213.50610352 C335.45527147 222.40138262 320.45859312 231.3074562 305.51123047 240.29760742 C299.79238854 243.73394114 294.06417273 247.15377764 288.32421875 250.5546875 C287.66155502 250.94731781 286.9988913 251.33994812 286.31614685 251.74447632 C284.95822816 252.54893803 283.60029242 253.35337096 282.24234009 254.15777588 C281.56424286 254.55945984 280.88614563 254.9611438 280.1875 255.375 C279.50964447 255.77652283 278.83178894 256.17804565 278.13339233 256.59173584 C268.0764178 262.55154629 258.06886029 268.58720597 248.08969116 274.6762085 C238.68126056 280.4130849 229.19793865 286.01180346 219.67843628 291.56204224 C210.68831269 296.80621816 201.76030359 302.14270631 192.875 307.5625 C180.50777259 315.10465773 168.06415051 322.51218642 155.59130859 329.87841797 C149.07814809 333.72544067 142.56898407 337.57919707 136.0625 341.4375 C135.38855194 341.83706909 134.71460388 342.23663818 134.02023315 342.64831543 C124.00191812 348.59093406 114.03259752 354.60962113 104.08914185 360.67648315 C94.68090053 366.41328074 85.19776376 372.01190543 75.67843628 377.56204224 C66.68830356 382.80622349 57.76053306 388.14307073 48.875 393.5625 C39.94825058 399.00459099 31.00659851 404.41935641 22.019104 409.76071167 C20.30445007 410.78012771 18.59140681 411.80225137 16.87841797 412.82446289 C15.83057129 413.44571045 14.78272461 414.06695801 13.703125 414.70703125 C12.79208008 415.2481958 11.88103516 415.78936035 10.94238281 416.34692383 C7.36312027 418.35780888 3.67203258 420.16398371 0 422 C0 282.74 0 143.48 0 0 Z " fill="#20BDC5" transform="translate(3774,826)"/>
<path d="M0 0 C3.04827922 2.68688529 5.9598319 5.48913216 8.85546875 8.33984375 C9.63535156 9.09523438 10.41523438 9.850625 11.21875 10.62890625 C32.69735659 32.83236812 41.2786106 64.34706626 41.15576172 94.52612305 C40.62459711 123.86220096 30.40720519 151.32614345 10.85546875 173.33984375 C10.0665625 174.22929687 9.27765625 175.11875 8.46484375 176.03515625 C-11.8839152 197.52937514 -41.35314835 211.12664905 -70.92651367 212.46582031 C-103.92714255 213.29947598 -135.03912643 206.70094296 -161.14453125 185.33984375 C-161.69302734 184.89302246 -162.24152344 184.44620117 -162.80664062 183.98583984 C-186.50966489 164.29121095 -200.75871955 135.80343394 -204.14453125 105.33984375 C-204.42040489 100.75187323 -204.47937362 96.18535028 -204.45703125 91.58984375 C-204.4513916 90.36410645 -204.44575195 89.13836914 -204.43994141 87.87548828 C-204.01751112 56.18485175 -191.8491444 29.30768835 -170.14453125 6.33984375 C-169.48582031 5.62828125 -168.82710937 4.91671875 -168.1484375 4.18359375 C-125.55252488 -40.38355828 -45.29261488 -38.85224306 0 0 Z M-136.33203125 44.90234375 C-149.2110843 61.77025331 -152.3640797 83.96728884 -149.640625 104.578125 C-146.61919151 123.94151266 -138.19258587 140.25904252 -122.55078125 152.34375 C-106.20454114 163.47361642 -86.3316441 166.56664119 -67.08203125 163.15234375 C-48.99731212 159.57790674 -35.21293739 149.86583853 -24.43359375 134.9765625 C-12.61411255 116.64736704 -10.21125217 93.02760276 -14.70703125 71.96484375 C-18.56182595 55.65363162 -27.58085018 41.33134284 -41.14453125 31.33984375 C-43.70978528 29.75609019 -46.33513435 28.33564722 -49.01953125 26.96484375 C-49.95430298 26.48229126 -49.95430298 26.48229126 -50.90795898 25.98999023 C-60.67050007 21.28471658 -70.70582088 19.795838 -81.45703125 19.90234375 C-82.54790039 19.91064209 -83.63876953 19.91894043 -84.76269531 19.92749023 C-105.9382655 20.36877882 -122.43635003 29.03677669 -136.33203125 44.90234375 Z " fill="#662D91" transform="translate(2130.14453125,1934.66015625)"/>
<path d="M0 0 C132.24573171 0 132.24573171 0 155.375 21.75 C169.98924471 37.277635 173.52713877 54.35716576 173.27734375 74.87890625 C172.75426869 91.84891846 165.84465439 105.11450197 154 117 C153.39671875 117.62648438 152.7934375 118.25296875 152.171875 118.8984375 C142.5020566 128.18987171 129.82387437 132.99656563 117 136 C118.51453397 139.31208691 120.42230372 142.04167729 122.625 144.9375 C123.20109009 145.69752319 123.20109009 145.69752319 123.78881836 146.47290039 C125.18909961 148.31791076 126.59462156 150.1588695 128 152 C129.19680587 153.57277113 130.39340705 155.14569802 131.58984375 156.71875 C135.01903418 161.22498634 138.45263112 165.72784811 141.88720703 170.22998047 C145.92369778 175.5221025 149.95637489 180.81713076 153.98950195 186.11181641 C157.3713924 190.55119432 160.75468108 194.98949395 164.140625 199.42578125 C167.47114003 203.78999937 170.79683694 208.15784844 174.11914062 212.52832031 C175.36611772 214.16700101 176.61479781 215.80438729 177.86523438 217.44042969 C179.58126649 219.68611279 181.29135073 221.93619733 183 224.1875 C183.51079102 224.85305908 184.02158203 225.51861816 184.54785156 226.2043457 C188 230.77183163 188 230.77183163 188 233 C180.05474666 233.23246223 172.11092979 233.4097499 164.16310883 233.51812172 C160.47176922 233.57015727 156.78276733 233.64062604 153.09277344 233.75439453 C149.52638609 233.8636545 145.96223491 233.92295862 142.39430237 233.94877243 C140.3818673 233.97604592 138.37032409 234.05402495 136.35925293 234.13296509 C127.35797484 234.13844494 127.35797484 234.13844494 123.44462585 230.85772705 C121.39860279 228.3266492 119.68270439 225.78224517 118 223 C116.9566322 221.56366283 115.90285586 220.1347357 114.83203125 218.71875 C113.82289142 217.3143857 112.81643811 215.90808755 111.8125 214.5 C110.68366453 212.92703254 109.55475619 211.35411736 108.42578125 209.78125 C107.85811035 208.98847656 107.29043945 208.19570312 106.70556641 207.37890625 C103.98078794 203.57841364 101.23985565 199.78962941 98.5 196 C97.4165834 194.50006014 96.3332502 193.00006003 95.25 191.5 C94.71375 190.7575 94.1775 190.015 93.625 189.25 C88.75 182.5 88.75 182.5 87.12402344 180.24853516 C86.04408802 178.75331489 84.96401061 177.25819716 83.88378906 175.76318359 C81.1222756 171.94089565 78.36349187 168.11668417 75.609375 164.2890625 C72.90649953 160.53331139 70.19347766 156.78506787 67.47509766 153.04052734 C66.08179782 151.1131523 64.70202562 149.17674514 63.32421875 147.23828125 C62.5291833 146.13763241 61.73364829 145.03734415 60.9375 143.9375 C60.26589844 142.99777344 59.59429688 142.05804687 58.90234375 141.08984375 C56.99435847 138.60606066 56.99435847 138.60606066 53 138 C53 169.35 53 200.7 53 233 C35.51 233 18.02 233 0 233 C0 156.11 0 79.22 0 0 Z M53 42 C53 60.48 53 78.96 53 98 C63.333125 98.0928125 63.333125 98.0928125 73.875 98.1875 C77.10579346 98.22846802 77.10579346 98.22846802 80.40185547 98.27026367 C82.14029381 98.27903887 83.87873839 98.28668035 85.6171875 98.29296875 C86.4944751 98.30831665 87.3717627 98.32366455 88.27563477 98.33947754 C98.33164909 98.34365941 106.53821795 95.82269423 114 89 C119.96721375 82.56169043 121.08545622 75.57766802 121 67 C119.65808252 59.00440836 116.3199017 52.21832946 109.80685425 47.15618896 C102.60864688 42.55012407 95.57225479 41.42279188 87.1796875 41.609375 C86.30513916 41.61340332 85.43059082 41.61743164 84.52954102 41.62158203 C81.31114246 41.64226475 78.09304664 41.69810713 74.875 41.75 C64.046875 41.87375 64.046875 41.87375 53 42 Z " fill="#662D91" transform="translate(2953,1910)"/>
<path d="M0 0 C15.84 0 31.68 0 48 0 C52.50047927 10.12607836 52.50047927 10.12607836 54.06445312 14.07763672 C54.42083359 14.97548889 54.77721405 15.87334106 55.14439392 16.79840088 C55.51955643 17.74922546 55.89471893 18.70005005 56.28125 19.6796875 C56.68706802 20.70398865 57.09288605 21.72828979 57.51100159 22.78363037 C58.8426553 26.14663762 60.17142955 29.51077362 61.5 32.875 C62.44060613 35.25311922 63.3812811 37.63121122 64.32202148 40.00927734 C72.68182455 61.15292602 80.98706497 82.31792337 89.27590942 103.48947144 C93.43059416 114.10145575 97.59146247 124.71101157 101.75283813 135.32037354 C103.81714937 140.58331398 105.88127502 145.84632719 107.9453125 151.109375 C108.55971947 152.67602402 108.55971947 152.67602402 109.1865387 154.27432251 C111.82822584 161.01069395 114.46875384 167.74751882 117.10858154 174.48461914 C118.92645253 179.12388301 120.74470638 183.76299678 122.56298828 188.40209961 C123.42385606 190.59880223 124.28453937 192.79557716 125.14501953 194.99243164 C126.3435974 198.05243368 127.54287997 201.11215888 128.7421875 204.171875 C129.11333679 205.12030273 129.48448608 206.06873047 129.86688232 207.04589844 C131.5203773 211.26402634 133.18585261 215.47579558 134.89941406 219.66992188 C135.18462921 220.37030579 135.46984436 221.0706897 135.76370239 221.79229736 C136.50718539 223.61118796 137.25743166 225.42731012 138.00830078 227.24316406 C139 230 139 230 139 233 C120.52 233 102.04 233 83 233 C78.05 219.47 73.1 205.94 68 192 C38.63 192 9.26 192 -21 192 C-25.95 205.2 -30.9 218.4 -36 232 C-37 233 -37 233 -39.17030334 233.12025452 C-40.12738693 233.11803391 -41.08447052 233.11581329 -42.07055664 233.11352539 C-43.15160172 233.11344986 -44.23264679 233.11337433 -45.34645081 233.11329651 C-47.110485 233.10555458 -47.110485 233.10555458 -48.91015625 233.09765625 C-50.10732773 233.0962413 -51.30449921 233.09482635 -52.53794861 233.09336853 C-56.37949066 233.08774979 -60.22097543 233.07519411 -64.0625 233.0625 C-66.65950437 233.05748741 -69.25650965 233.05292409 -71.85351562 233.04882812 C-78.23569679 233.03777427 -84.6178443 233.02101792 -91 233 C-90.43581533 229.03055223 -89.59319645 225.55467521 -88.08911133 221.84130859 C-87.693349 220.85535202 -87.29758667 219.86939545 -86.88983154 218.8535614 C-86.45825745 217.79587051 -86.02668335 216.73817963 -85.58203125 215.6484375 C-85.13345764 214.53471268 -84.68488403 213.42098785 -84.22271729 212.27351379 C-83.00975902 209.26381451 -81.7917486 206.25621864 -80.57185745 203.2493248 C-78.52608871 198.19974626 -76.49625629 193.14371617 -74.46333122 188.08895683 C-73.70353239 186.20023145 -72.94305087 184.31178194 -72.18251038 182.4233551 C-68.40607913 173.03771924 -64.70211942 163.6268848 -61.0625 154.1875 C-54.99046285 138.46248071 -48.78335778 122.79162135 -42.5625 107.125 C-42.18653687 106.17816031 -42.18653687 106.17816031 -41.80297852 105.21219254 C-40.54880746 102.05373515 -39.29454564 98.8953138 -38.0402832 95.7368927 C-37.67358017 94.81347045 -37.67358017 94.81347045 -37.29946899 93.8713932 C-36.56581147 92.02396365 -35.83210019 90.17655545 -35.09838867 88.32914734 C-31.07033402 78.18408358 -27.06305471 68.03093116 -23.0625 57.875 C-15.44987868 38.55326999 -7.72458065 19.27727207 0 0 Z M23 70 C22.78195206 70.58563721 22.56390411 71.17127441 22.33924866 71.7746582 C20.01873694 78.00696066 17.69782641 84.23911451 15.37670898 90.47119141 C14.51658569 92.7807255 13.65655596 95.09029445 12.79663086 97.39990234 C11.96113512 99.64386105 11.12547187 101.8877574 10.28964233 104.1315918 C9.45266954 106.37893917 8.61626493 108.62649824 7.78042603 110.87426758 C5.66056227 116.56952537 3.52563873 122.25841309 1.36279297 127.9375 C0.94380234 129.04158203 0.52481171 130.14566406 0.09312439 131.28320312 C-0.70435542 133.382439 -1.50580149 135.48017365 -2.31175232 137.57617188 C-2.84301476 138.97706055 -2.84301476 138.97706055 -3.38500977 140.40625 C-3.69801529 141.22416016 -4.01102081 142.04207031 -4.33351135 142.88476562 C-5.15026222 145.10726174 -5.15026222 145.10726174 -5 148 C13.81 148 32.62 148 52 148 C50.76806295 142.45628329 49.69386873 137.72028661 47.80102539 132.50561523 C47.37040298 131.31085068 46.93978058 130.11608612 46.49610901 128.88511658 C46.03008829 127.60956139 45.56393412 126.33405496 45.09765625 125.05859375 C44.61398516 123.72315736 44.13079391 122.38754709 43.64805603 121.05177307 C42.38335046 117.55639537 41.111965 114.0634845 39.83917236 110.57104492 C38.55061485 107.03133439 37.26887806 103.48915622 35.98632812 99.94726562 C30.56105361 84.94861543 30.56105361 84.94861543 25 70 C24.34 70 23.68 70 23 70 Z " fill="#662D91" transform="translate(2695,1910)"/>
<path d="M0 0 C15.84 0 31.68 0 48 0 C57.93475806 24.70617465 67.66355663 49.49044729 77.37109375 74.28662109 C81.57600351 85.02626663 85.78842992 95.76296505 90 106.5 C91.665446 110.74606182 93.33081331 114.99215449 94.99609375 119.23828125 C95.40842758 120.28964264 95.82076141 121.34100403 96.24559021 122.42422485 C98.75701995 128.82847646 101.26682574 135.23336192 103.77536011 141.63874817 C105.4540653 145.92509684 107.13326569 150.21125139 108.81262207 154.49734497 C109.64097349 156.611607 110.4691816 158.72592518 111.29724121 160.84030151 C115.99727056 172.83951986 120.71944731 184.8295266 125.48046875 196.8046875 C125.92564346 197.92529068 126.37081818 199.04589386 126.82948303 200.20045471 C128.96924409 205.58617012 131.11244545 210.97046589 133.26196289 216.35229492 C134.023734 218.26736217 134.78537862 220.18247974 135.546875 222.09765625 C135.89892502 222.97521576 136.25097504 223.85277527 136.61369324 224.75692749 C136.93034439 225.5552298 137.24699554 226.3535321 137.57324219 227.17602539 C137.85045105 227.87047256 138.12765991 228.56491974 138.41326904 229.28041077 C139 231 139 231 139 233 C120.52 233 102.04 233 83 233 C77.36524454 219.47658689 77.36524454 219.47658689 75.32421875 213.7734375 C74.88916016 212.55785156 74.45410156 211.34226562 74.00585938 210.08984375 C73.35327148 208.25099609 73.35327148 208.25099609 72.6875 206.375 C72.22872675 205.09758041 71.76974331 203.82023628 71.31054688 202.54296875 C70.66762695 200.73892578 70.66762695 200.73892578 70.01171875 198.8984375 C69.43103638 197.26914307 69.43103638 197.26914307 68.83862305 195.60693359 C68 193 68 193 68 191 C38.3 191 8.6 191 -22 191 C-22.99 194.3 -23.98 197.6 -25 201 C-25.86416868 203.4979629 -26.75083155 205.98830339 -27.6640625 208.46875 C-27.90160248 209.11573853 -28.13914246 209.76272705 -28.38388062 210.42932129 C-28.87822377 211.77403237 -29.3739635 213.11823086 -29.87109375 214.46191406 C-30.63347148 216.52290153 -31.39128879 218.58552396 -32.1484375 220.6484375 C-35.84370814 230.68741628 -35.84370814 230.68741628 -37 233 C-55.15 233 -73.3 233 -92 233 C-90.08852945 227.26558835 -88.14991112 221.63041352 -85.9453125 216.015625 C-85.50517067 214.88717667 -85.50517067 214.88717667 -85.05613708 213.7359314 C-84.08151335 211.23966655 -83.10339236 208.74478996 -82.125 206.25 C-81.42174601 204.45232982 -80.71854097 202.65464049 -80.01538086 200.85693359 C-72.02596404 180.45153568 -63.93729767 160.08525326 -55.8543396 139.71678162 C-51.6027766 129.00202591 -47.36207434 118.28299208 -43.125 107.5625 C-42.77833282 106.68547424 -42.43166565 105.80844849 -42.07449341 104.90484619 C-37.82882817 94.163538 -33.58624558 83.42101452 -29.34619141 72.67749023 C-28.12751248 69.58960561 -26.90842584 66.50188249 -25.68896484 63.41430664 C-22.64524203 55.70703203 -19.60512364 47.99837088 -16.57275391 40.28662109 C-15.01368902 36.32295139 -13.45243558 32.36014567 -11.89086914 28.39746094 C-11.13710864 26.48313832 -10.38432336 24.56843138 -9.63256836 22.65332031 C-8.5856803 19.98663441 -7.53539283 17.32131043 -6.484375 14.65625 C-6.17566467 13.86738403 -5.86695435 13.07851807 -5.54888916 12.26574707 C-5.11041656 11.15677063 -5.11041656 11.15677063 -4.66308594 10.02539062 C-4.41298767 9.3894397 -4.1628894 8.75348877 -3.9052124 8.0982666 C-2.71808153 5.34651789 -1.34025376 2.68050751 0 0 Z M23 68 C22.58339111 69.14960205 22.16678223 70.2992041 21.73754883 71.48364258 C19.76423407 76.92721296 17.78875486 82.36999638 15.8125 87.8125 C15.45462402 88.79819977 15.09674805 89.78389954 14.72802734 90.79946899 C9.16119123 106.12554792 3.53028179 121.42639484 -2.18823242 136.6965332 C-2.44791306 137.39162994 -2.70759369 138.08672668 -2.97514343 138.80288696 C-3.66895183 140.65969607 -4.36467546 142.51578923 -5.06054688 144.37182617 C-6.05609947 146.69176917 -6.05609947 146.69176917 -6 148 C13.14 148 32.28 148 52 148 C49.58864114 139.91219575 49.58864114 139.91219575 46.90283203 131.94628906 C46.51878204 130.87106995 46.13473206 129.79585083 45.73904419 128.68804932 C45.33273773 127.55864929 44.92643127 126.42924927 44.5078125 125.265625 C44.07999481 124.06999939 43.65217712 122.87437378 43.21139526 121.64251709 C42.08082842 118.48432305 40.94808083 115.32692956 39.81420898 112.16992188 C38.67510867 108.99674268 37.53882448 105.82255564 36.40234375 102.6484375 C34.72166645 97.95553255 33.03957319 93.26314041 31.35595703 88.57128906 C28.89692235 81.71670549 26.44765357 74.8586544 24 68 C23.67 68 23.34 68 23 68 Z " fill="#662D91" transform="translate(3613,1910)"/>
<path d="M0 0 C7.57866729 5.87719445 7.57866729 5.87719445 9.9375 8.8125 C9.56324041 12.19350518 8.26247413 13.85605497 5.88647461 16.20410156 C5.24588608 16.8444635 4.60529755 17.48482544 3.94529724 18.14459229 C3.25049759 18.82390808 2.55569794 19.50322388 1.83984375 20.203125 C1.13098526 20.90773865 0.42212677 21.61235229 -0.30821228 22.33831787 C-2.5735328 24.58684785 -4.84906208 26.82472238 -7.125 29.0625 C-8.66279335 30.58524708 -10.19991131 32.10867654 -11.73632812 33.6328125 C-15.50391802 37.3673281 -19.27994265 41.0931485 -23.0625 44.8125 C-26.31904829 43.26354007 -28.56827571 41.55607884 -31.1875 39.0625 C-43.87294815 27.65799286 -57.53858126 23.83032313 -74.359375 24.43359375 C-81.84743516 24.90867155 -88.23990556 26.55354568 -93.6875 31.9375 C-96.83285184 36.18600422 -97.42212586 40.61883345 -97.0625 45.8125 C-94.57743492 54.23410943 -89.10922441 58.01213733 -81.88745117 62.28979492 C-77.34411489 64.73874388 -72.6049453 66.46209639 -67.75 68.1875 C-65.63138414 68.96319685 -63.51289701 69.7392454 -61.39453125 70.515625 C-60.3370166 70.89912109 -59.27950195 71.28261719 -58.18994141 71.67773438 C-22.409512 84.66036013 -22.409512 84.66036013 -10.0625 95.8125 C-9.29292969 96.47765625 -8.52335937 97.1428125 -7.73046875 97.828125 C4.59559652 109.16726511 10.45068499 124.08164599 11.3125 140.6015625 C11.92147469 160.71207481 8.46950029 177.60403943 -4.75 193.40234375 C-18.80455849 208.05042245 -38.30363006 215.25863246 -58.0625 217.8125 C-59.31353516 217.98072266 -59.31353516 217.98072266 -60.58984375 218.15234375 C-91.37583872 221.61517523 -123.45424781 217.07604234 -148.53125 197.890625 C-154.67094549 192.85001081 -160.53787915 187.52127488 -166.0625 181.8125 C-164.73255617 178.85984888 -163.28470684 176.78899784 -160.98974609 174.51269531 C-160.05900772 173.58218353 -160.05900772 173.58218353 -159.10946655 172.63287354 C-158.44170197 171.97543152 -157.77393738 171.3179895 -157.0859375 170.640625 C-156.05806625 169.6169986 -156.05806625 169.6169986 -155.00942993 168.57269287 C-152.82344155 166.39788402 -150.63059571 164.23013928 -148.4375 162.0625 C-146.95266745 160.5877001 -145.46828694 159.11244494 -143.984375 157.63671875 C-140.3489709 154.02334552 -136.70740176 150.41629147 -133.0625 146.8125 C-130.08285452 148.23423842 -128.1649058 149.55433081 -125.9375 152 C-114.22338971 163.98768823 -97.8217357 171.76900042 -81.0625 172.8125 C-80.25554688 172.86535156 -79.44859375 172.91820313 -78.6171875 172.97265625 C-67.37030824 173.34973821 -55.57213547 171.70495312 -47.0625 163.8125 C-43.41746414 159.93902865 -42.76342609 156.11059347 -42.5 150.875 C-42.7814891 143.82017948 -44.97760063 140.0707895 -49.73046875 135.05078125 C-60.20791042 125.74447078 -75.74700302 121.88439785 -88.6875 117.3125 C-113.44015536 108.52773041 -134.48941483 98.50906803 -146.3984375 73.875 C-152.92086161 58.93607748 -152.30462581 38.20385543 -147.30859375 22.921875 C-140.02212988 4.7399777 -126.90245025 -7.1827637 -109.10693359 -14.83178711 C-74.32164419 -29.12198229 -29.61007602 -22.72488681 0 0 Z " fill="#662D91" transform="translate(2366.0625,1928.1875)"/>
<path d="M0 0 C1.08995773 -0.00855011 1.08995773 -0.00855011 2.20193481 -0.01727295 C3.7364967 -0.02667019 5.27107829 -0.03323579 6.80566406 -0.03710938 C9.09218309 -0.0467045 11.37775794 -0.07773065 13.6640625 -0.109375 C45.28597716 -0.3369905 74.36908301 11.32717115 97.2578125 33.203125 C93.14451379 38.10786401 88.87238789 42.7250778 84.328125 47.23046875 C83.69292938 47.86424942 83.05773376 48.49803009 82.40328979 49.15101624 C80.39882534 51.14993906 78.39089036 53.14533284 76.3828125 55.140625 C75.01278861 56.50562633 73.64299476 57.8708586 72.2734375 59.23632812 C68.93754707 62.56126711 65.59854214 65.88304853 62.2578125 69.203125 C59.29935141 67.78771334 57.32149386 66.40261795 55.0078125 64.078125 C40.38751741 51.08834609 21.49426774 48.15353114 2.58789062 49.04785156 C-15.08020457 50.22523092 -29.93192302 58.39020824 -41.69140625 71.3515625 C-56.6305517 89.30446181 -58.36186948 110.78630108 -56.7421875 133.203125 C-54.53700503 152.1372779 -44.63100197 166.99246259 -30.4296875 179.078125 C-14.18110561 191.0093099 6.31493081 192.20817968 25.69628906 189.91455078 C39.87281371 187.45952734 52.26548623 180.35661782 62.2578125 170.203125 C67.16255151 174.31642371 71.7797653 178.58854961 76.28515625 183.1328125 C76.91893692 183.76800812 77.55271759 184.40320374 78.20570374 185.05764771 C80.20462656 187.06211216 82.20002034 189.07004714 84.1953125 191.078125 C85.56031383 192.44814889 86.9255461 193.81794274 88.29101562 195.1875 C91.61595461 198.52339043 94.93773603 201.86239536 98.2578125 205.203125 C91.70350467 218.89782673 70.93412763 228.07749365 57.13378906 232.95361328 C48.3320964 235.86845955 39.47198889 238.07109761 30.2578125 239.203125 C29.41734375 239.31398438 28.576875 239.42484375 27.7109375 239.5390625 C-5.33478455 243.24418891 -39.89495594 236.50525364 -66.5390625 215.82421875 C-89.40508153 197.34528476 -104.2320904 174.15427799 -110.7421875 145.203125 C-110.9690625 144.22730469 -111.1959375 143.25148438 -111.4296875 142.24609375 C-117.32733176 111.65206416 -110.67038743 77.97960651 -93.6171875 51.9609375 C-91.42313003 48.94410848 -89.13740536 46.06256261 -86.7421875 43.203125 C-85.90945313 42.20667969 -85.07671875 41.21023438 -84.21875 40.18359375 C-63.67624906 16.37001825 -31.67376401 0.19909034 0 0 Z " fill="#662D91" transform="translate(1801.7421875,1906.796875)"/>
<path d="M0 0 C0.75361816 0.00215515 1.50723633 0.0043103 2.28369141 0.00653076 C13.23039124 0.05682232 23.70097251 0.3698075 34.3125 3.3125 C35.37597656 3.60253906 35.37597656 3.60253906 36.4609375 3.8984375 C53.17445987 8.58285034 67.87841433 16.34026889 81.3125 27.3125 C81.99441406 27.86550781 82.67632813 28.41851563 83.37890625 28.98828125 C84.70399164 30.07970889 86.01163682 31.19231226 87.3125 32.3125 C85.95136987 35.35831486 84.41919904 37.45089026 82.05615234 39.79589844 C81.39561859 40.45628113 80.73508484 41.11666382 80.05453491 41.79705811 C79.34302277 42.49824768 78.63151062 43.19943726 77.8984375 43.921875 C77.16879791 44.64868469 76.43915833 45.37549438 75.68740845 46.12432861 C73.3587612 48.44179198 71.02325174 50.7521995 68.6875 53.0625 C67.10631347 54.63365444 65.52557875 56.20526371 63.9453125 57.77734375 C60.0729331 61.62768653 56.19489829 65.47226117 52.3125 69.3125 C51.03132083 68.35317738 49.75035626 67.39356815 48.46948242 66.43383789 C47.75612228 65.89948624 47.04276215 65.36513458 46.30778503 64.81459045 C44.79731826 63.67748088 43.29666459 62.52732084 41.80078125 61.37109375 C26.319949 49.83690096 6.88989406 47.18034768 -11.93115234 49.60107422 C-28.73514088 52.49563409 -43.33174071 60.57596371 -53.8125 74.04296875 C-66.4415328 92.90486471 -69.84434652 116.01545875 -65.65820312 138.16796875 C-61.87761471 154.89040548 -53.25085323 169.93518449 -39 179.8125 C-37.57586919 180.66848021 -36.13908615 181.50395295 -34.6875 182.3125 C-34.09066406 182.67601563 -33.49382813 183.03953125 -32.87890625 183.4140625 C-16.95714044 192.38503592 4.61728613 193.01737772 22.0625 188.75 C34.1247267 185.14895946 43.43421442 179.15070303 52.3125 170.3125 C57.29842875 174.49027765 61.97954284 178.84377277 66.55859375 183.4609375 C67.54255882 184.44702499 67.54255882 184.44702499 68.54640198 185.45303345 C70.61665268 187.52882862 72.68337651 189.60809427 74.75 191.6875 C76.16317862 193.1057008 77.57658794 194.52367176 78.99023438 195.94140625 C82.43366065 199.39578777 85.87393099 202.8532837 89.3125 206.3125 C68.07529113 227.67694346 39.27608636 239.112502 9.3125 240.3125 C7.34796875 240.39177734 7.34796875 240.39177734 5.34375 240.47265625 C-29.82818922 241.41089268 -61.82159358 230.24324053 -87.4230957 206.02612305 C-110.46490699 183.58377352 -121.99038666 153.77354053 -123.04101562 121.85693359 C-123.39342265 88.32220188 -110.91179034 57.43950127 -87.6875 33.3125 C-84.20228093 30.02455748 -80.56272004 27.12664789 -76.6875 24.3125 C-76.14287109 23.9107959 -75.59824219 23.5090918 -75.03710938 23.09521484 C-61.04188494 12.87367466 -45.69392317 5.82507411 -28.6875 2.3125 C-27.853396 2.13662354 -27.01929199 1.96074707 -26.15991211 1.77954102 C-17.44163893 0.11436935 -8.83758235 -0.04538192 0 0 Z " fill="#662D91" transform="translate(3408.6875,1906.6875)"/>
<path d="M0 0 C65.34 0 130.68 0 198 0 C198 15.51 198 31.02 198 47 C174.24 47 150.48 47 126 47 C126 108.38 126 169.76 126 233 C108.18 233 90.36 233 72 233 C72 171.62 72 110.24 72 47 C48.24 47 24.48 47 0 47 C0 31.49 0 15.98 0 0 Z " fill="#662D91" transform="translate(2404,1910)"/>
<path d="M0 0 C1.74500293 0.93880678 3.48843002 1.880543 5.23120117 2.82348633 C6.20224289 3.34759598 7.17328461 3.87170563 8.17375183 4.41169739 C12.06862644 6.60054959 15.69337127 9.07475766 19.3125 11.6875 C20.39797119 12.46395874 20.39797119 12.46395874 21.50537109 13.25610352 C28.5042444 18.29907049 35.32959547 23.53064836 42 29 C42.56299805 29.45858398 43.12599609 29.91716797 43.70605469 30.38964844 C52.37379298 37.50554237 60.42643709 45.22240477 68.375 53.125 C69.74785156 54.48395386 69.74785156 54.48395386 71.1484375 55.87036133 C77.19021942 61.94013478 82.67648603 68.29611758 88 75 C88.90528263 76.09952871 89.81241308 77.19754308 90.72265625 78.29296875 C120.13785081 114.68138138 160 177.26489657 160 226 C156.13859778 224.56594155 152.70214215 222.76853075 149.15234375 220.68359375 C148.59229141 220.35557266 148.03223907 220.02755157 147.45521545 219.68959045 C145.61375607 218.6092897 143.77554134 217.52360457 141.9375 216.4375 C140.63611021 215.67180276 139.33467719 214.90617899 138.03320312 214.140625 C128.72731968 208.65644205 119.48549588 203.07042099 110.26657104 197.44161987 C101.40026521 192.02966645 92.47400634 186.73125504 83.5 181.5 C73.31579551 175.56259957 63.20365022 169.51956959 53.14059448 163.37918091 C43.24883413 157.34410174 33.30306803 151.40626937 23.31787109 145.52709961 C1.89548867 132.89548867 1.89548867 132.89548867 0 131 C-0.09619441 129.30441297 -0.12187659 127.6047916 -0.12025452 125.90647888 C-0.12162918 124.80285004 -0.12300385 123.69922119 -0.12442017 122.56214905 C-0.12082489 121.34079758 -0.11722961 120.11944611 -0.11352539 118.86108398 C-0.11367142 117.58322021 -0.11381744 116.30535645 -0.1139679 114.98876953 C-0.11425585 111.47446409 -0.1083594 107.9601925 -0.10139394 104.44589496 C-0.09516012 100.77700644 -0.09455658 97.10811723 -0.09336853 93.43922424 C-0.0902553 86.48709565 -0.08204202 79.5349827 -0.07201904 72.58286101 C-0.06085766 64.6700522 -0.05534739 56.75724266 -0.05032361 48.84442794 C-0.0398594 32.56294279 -0.02226011 16.28147339 0 0 Z " fill="#F68F1E" transform="translate(3774,695)"/>
<path d="M0 0 C1.54001067 3.08002134 0.16792151 5.74429103 -0.73828125 8.90234375 C-0.9342691 9.60304993 -1.13025696 10.3037561 -1.33218384 11.0256958 C-1.98236116 13.33258867 -2.64581411 15.63532669 -3.3125 17.9375 C-3.5393045 18.72565094 -3.76610901 19.51380188 -3.99978638 20.32583618 C-18.46932328 70.39961099 -41.43368031 117.67941304 -76 157 C-76.61101563 157.71027344 -77.22203125 158.42054688 -77.8515625 159.15234375 C-79.54884494 161.11909995 -81.27066137 163.06137835 -83 165 C-83.76183594 165.86625 -84.52367188 166.7325 -85.30859375 167.625 C-96.56870276 180.20687515 -108.87172326 191.56170906 -122.34277344 201.73681641 C-123.9670159 202.97485861 -125.56784215 204.23782168 -127.1640625 205.51171875 C-133.23947253 210.33339793 -139.49836115 214.76812288 -146 219 C-146.71841064 219.46921875 -147.43682129 219.9384375 -148.17700195 220.421875 C-148.86109131 220.86015625 -149.54518066 221.2984375 -150.25 221.75 C-151.15492188 222.33007812 -151.15492188 222.33007812 -152.078125 222.921875 C-154.31258512 224.17535263 -156.61675813 225.06606648 -159 226 C-159.58611672 209.18034304 -160.02581684 192.36390228 -160.2953043 175.53634548 C-160.42381296 167.72101985 -160.59864743 159.91206278 -160.88598633 152.10083008 C-161.1365733 145.28539143 -161.29675086 138.47456129 -161.35221237 131.65464455 C-161.38461961 128.0461559 -161.45956199 124.45083583 -161.64325142 120.84661674 C-162.53185855 102.71613637 -162.53185855 102.71613637 -159 95 C-152.98677024 88.43859125 -145.05760506 84.80239216 -136.99637413 81.33257484 C-132.9225657 79.52083359 -129.20512691 77.27407053 -125.4375 74.90625 C-124.19276213 74.16394202 -122.94628357 73.42453657 -121.69726562 72.68945312 C-109.94396947 65.72983061 -98.21041344 58.73888729 -86.50512695 51.69873047 C-78.76738342 47.04926695 -71.00579226 42.44104717 -63.23904419 37.84030151 C-51.55360335 30.91803583 -39.90769042 23.93640147 -28.30929565 16.86923218 C-18.92651994 11.15258183 -9.49824228 5.52254944 0 0 Z " fill="#F68F1E" transform="translate(3933,1153)"/>
<path d="M0 0 C17.49 0 34.98 0 53 0 C53 76.89 53 153.78 53 233 C35.51 233 18.02 233 0 233 C0 156.11 0 79.22 0 0 Z " fill="#662D91" transform="translate(3182,1910)"/>
</svg>
